<svg xmlns="http://www.w3.org/2000/svg" viewBox="0 0 480 224" font-family="'Noto Sans TC','PingFang TC','Microsoft JhengHei',-apple-system,system-ui,sans-serif">
<rect x="0" y="0" width="480" height="224" rx="8" fill="#FFFFFF" stroke="#E5E7EB" stroke-width="1"/>
<circle cx="20" cy="32" r="4" fill="#3B82F6"/>
<text x="32" y="37" font-size="13" fill="#374151">Restored from snapshot …</text>
<rect x="250" y="23" width="142" height="18" rx="9" fill="#DBEAFE" stroke="#BFDBFE" stroke-width="1"/>
<text x="321" y="36" font-size="11" font-weight="500" fill="#1D4ED8" text-anchor="middle">Recovered</text>
<text x="464" y="36" font-size="11" fill="#9CA3AF" text-anchor="end">today 14:20</text>
<circle cx="20" cy="64" r="4" fill="#3B82F6"/>
<text x="32" y="69" font-size="13" fill="#374151">Auto-save (30 min)</text>
<text x="464" y="68" font-size="11" fill="#9CA3AF" text-anchor="end">today 14:00</text>
<circle cx="20" cy="96" r="4" fill="#3B82F6"/>
<text x="32" y="101" font-size="13" fill="#374151">Auto-save (30 min)</text>
<text x="464" y="100" font-size="11" fill="#9CA3AF" text-anchor="end">today 13:30</text>
<circle cx="20" cy="128" r="4" fill="#3B82F6"/>
<text x="32" y="133" font-size="13" fill="#374151">Morning baseline — man…</text>
<rect x="236" y="119" width="156" height="18" rx="9" fill="#DBEAFE" stroke="#BFDBFE" stroke-width="1"/>
<text x="314" y="132" font-size="11" font-weight="500" fill="#1D4ED8" text-anchor="middle">Morning v1</text>
<text x="464" y="132" font-size="11" fill="#9CA3AF" text-anchor="end">today 09:00</text>
<circle cx="20" cy="160" r="4" fill="#3B82F6"/>
<text x="32" y="165" font-size="13" fill="#374151">Auto-save (30 min)</text>
<text x="464" y="164" font-size="11" fill="#9CA3AF" text-anchor="end">yesterday 18:00</text>
<circle cx="20" cy="192" r="4" fill="#3B82F6"/>
<text x="32" y="197" font-size="13" fill="#374151">Auto-save (30 min)</text>
<text x="464" y="196" font-size="11" fill="#9CA3AF" text-anchor="end">yesterday 17:30</text>
</svg>