<svg xmlns="http://www.w3.org/2000/svg" viewBox="0 0 480 224" font-family="'Noto Sans TC','PingFang TC','Microsoft JhengHei',-apple-system,system-ui,sans-serif">
<rect x="0" y="0" width="480" height="224" rx="8" fill="#FFFFFF" stroke="#E5E7EB" stroke-width="1"/>
<circle cx="20" cy="32" r="4" fill="#3B82F6"/>
<text x="32" y="37" font-size="13" fill="#374151">자동 저장 — 요약 추가</text>
<text x="464" y="36" font-size="11" fill="#9CA3AF" text-anchor="end">30분 전</text>
<circle cx="20" cy="64" r="4" fill="#3B82F6"/>
<text x="32" y="69" font-size="13" fill="#374151">Client signed v2.3 — board approved</text>
<rect x="278" y="55" width="114" height="18" rx="9" fill="#DBEAFE" stroke="#BFDBFE" stroke-width="1"/>
<text x="335" y="68" font-size="11" font-weight="500" fill="#1D4ED8" text-anchor="middle">Release</text>
<text x="464" y="68" font-size="11" fill="#9CA3AF" text-anchor="end">오늘 오후</text>
<circle cx="20" cy="96" r="4" fill="#3B82F6"/>
<text x="32" y="101" font-size="13" fill="#374151">자동 저장</text>
<text x="464" y="100" font-size="11" fill="#9CA3AF" text-anchor="end">어제</text>
<circle cx="20" cy="128" r="4" fill="#3B82F6"/>
<text x="32" y="133" font-size="13" fill="#374151">CFO 3차 수정</text>
<text x="464" y="132" font-size="11" fill="#9CA3AF" text-anchor="end">월요일</text>
<circle cx="20" cy="160" r="4" fill="#3B82F6"/>
<text x="32" y="165" font-size="13" fill="#374151">이사회 초안</text>
<rect x="306" y="151" width="86" height="18" rx="9" fill="#DBEAFE" stroke="#BFDBFE" stroke-width="1"/>
<text x="349" y="164" font-size="11" font-weight="500" fill="#1D4ED8" text-anchor="middle">Draft</text>
<text x="464" y="164" font-size="11" fill="#9CA3AF" text-anchor="end">2주 전</text>
<circle cx="20" cy="192" r="4" fill="#3B82F6"/>
<text x="32" y="197" font-size="13" fill="#374151">이사회 준비</text>
<text x="464" y="196" font-size="11" fill="#9CA3AF" text-anchor="end">1개월 전</text>
</svg>