<svg xmlns="http://www.w3.org/2000/svg" viewBox="0 0 480 192" font-family="'Noto Sans TC','PingFang TC','Microsoft JhengHei',-apple-system,system-ui,sans-serif">
<rect x="0" y="0" width="480" height="192" rx="8" fill="#FFFFFF" stroke="#E5E7EB" stroke-width="1"/>
<circle cx="20" cy="32" r="4" fill="#3B82F6"/>
<text x="32" y="37" font-size="13" fill="#374151">修改蓋板規格 — 設計第 5 版</text>
<rect x="334" y="23" width="58" height="18" rx="9" fill="#DBEAFE" stroke="#BFDBFE" stroke-width="1"/>
<text x="363" y="36" font-size="11" font-weight="500" fill="#1D4ED8" text-anchor="middle">最新版</text>
<text x="464" y="36" font-size="11" fill="#9CA3AF" text-anchor="end">今天 15:30</text>
<circle cx="20" cy="64" r="4" fill="#3B82F6"/>
<text x="32" y="69" font-size="13" fill="#374151">避開老舊雨水管</text>
<text x="464" y="68" font-size="11" fill="#9CA3AF" text-anchor="end">04/20</text>
<circle cx="20" cy="96" r="4" fill="#3B82F6"/>
<text x="32" y="101" font-size="13" fill="#374151">甲方審閱後正式版</text>
<rect x="338" y="87" width="54" height="18" rx="9" fill="#DBEAFE" stroke="#BFDBFE" stroke-width="1"/>
<text x="365" y="100" font-size="11" font-weight="500" fill="#1D4ED8" text-anchor="middle">定版</text>
<text x="464" y="100" font-size="11" fill="#9CA3AF" text-anchor="end">04/18</text>
<circle cx="20" cy="128" r="4" fill="#3B82F6"/>
<text x="32" y="133" font-size="13" fill="#374151">斷面調整</text>
<text x="464" y="132" font-size="11" fill="#9CA3AF" text-anchor="end">04/15</text>
<circle cx="20" cy="160" r="4" fill="#3B82F6"/>
<text x="32" y="165" font-size="13" fill="#374151">第一次交付</text>
<rect x="338" y="151" width="54" height="18" rx="9" fill="#DBEAFE" stroke="#BFDBFE" stroke-width="1"/>
<text x="365" y="164" font-size="11" font-weight="500" fill="#1D4ED8" text-anchor="middle">初版</text>
<text x="464" y="164" font-size="11" fill="#9CA3AF" text-anchor="end">03/15</text>
</svg>