<svg xmlns="http://www.w3.org/2000/svg" viewBox="0 0 1200 630" font-family="'Inter','Noto Sans TC','PingFang TC','Noto Sans JP','Noto Sans KR',-apple-system,system-ui,sans-serif">
<defs>
<linearGradient id="bg" x1="0" y1="0" x2="0" y2="1">
<stop offset="0" stop-color="#F0F9FF"/><stop offset="1" stop-color="#E0E7FF"/>
</linearGradient>
</defs>
<rect x="0" y="0" width="1200" height="630" fill="url(#bg)"/>
<rect x="80" y="80" width="280" height="36" rx="18" fill="#1E40AF"/>
<text x="220" y="104" font-size="14" font-weight="600" fill="#FFFFFF" text-anchor="middle">2026 ファイル管理</text>
<text x="80" y="200" font-size="44" font-weight="800" fill="#111827">Dropbox は 30 日以内なら復元できる</text>
<text x="80" y="260" font-size="44" font-weight="800" fill="#DC2626">— 60 日後の依頼には届かない。</text>
<rect x="560" y="300" width="50" height="40" rx="5" fill="#3B82F6"/>
<text x="585" y="325" font-size="16" font-weight="700" fill="#FFFFFF" text-anchor="middle">1</text>
<rect x="615" y="300" width="50" height="40" rx="5" fill="#3B82F6"/>
<text x="640" y="325" font-size="16" font-weight="700" fill="#FFFFFF" text-anchor="middle">2</text>
<rect x="670" y="300" width="50" height="40" rx="5" fill="#3B82F6"/>
<text x="695" y="325" font-size="16" font-weight="700" fill="#FFFFFF" text-anchor="middle">3</text>
<rect x="725" y="300" width="50" height="40" rx="5" fill="#3B82F6"/>
<text x="750" y="325" font-size="16" font-weight="700" fill="#FFFFFF" text-anchor="middle">4</text>
<rect x="780" y="300" width="50" height="40" rx="5" fill="#3B82F6"/>
<text x="805" y="325" font-size="16" font-weight="700" fill="#FFFFFF" text-anchor="middle">5</text>
<rect x="835" y="300" width="50" height="40" rx="5" fill="#3B82F6"/>
<text x="860" y="325" font-size="16" font-weight="700" fill="#FFFFFF" text-anchor="middle">6</text>
<rect x="890" y="300" width="50" height="40" rx="5" fill="#3B82F6"/>
<text x="915" y="325" font-size="16" font-weight="700" fill="#FFFFFF" text-anchor="middle">7</text>
<rect x="560" y="345" width="50" height="40" rx="5" fill="#3B82F6"/>
<text x="585" y="370" font-size="16" font-weight="700" fill="#FFFFFF" text-anchor="middle">8</text>
<rect x="615" y="345" width="50" height="40" rx="5" fill="#3B82F6"/>
<text x="640" y="370" font-size="16" font-weight="700" fill="#FFFFFF" text-anchor="middle">9</text>
<rect x="670" y="345" width="50" height="40" rx="5" fill="#3B82F6"/>
<text x="695" y="370" font-size="16" font-weight="700" fill="#FFFFFF" text-anchor="middle">10</text>
<rect x="725" y="345" width="50" height="40" rx="5" fill="#3B82F6"/>
<text x="750" y="370" font-size="16" font-weight="700" fill="#FFFFFF" text-anchor="middle">11</text>
<rect x="780" y="345" width="50" height="40" rx="5" fill="#3B82F6"/>
<text x="805" y="370" font-size="16" font-weight="700" fill="#FFFFFF" text-anchor="middle">12</text>
<rect x="835" y="345" width="50" height="40" rx="5" fill="#3B82F6"/>
<text x="860" y="370" font-size="16" font-weight="700" fill="#FFFFFF" text-anchor="middle">13</text>
<rect x="890" y="345" width="50" height="40" rx="5" fill="#3B82F6"/>
<text x="915" y="370" font-size="16" font-weight="700" fill="#FFFFFF" text-anchor="middle">14</text>
<rect x="560" y="390" width="50" height="40" rx="5" fill="#3B82F6"/>
<text x="585" y="415" font-size="16" font-weight="700" fill="#FFFFFF" text-anchor="middle">15</text>
<rect x="615" y="390" width="50" height="40" rx="5" fill="#3B82F6"/>
<text x="640" y="415" font-size="16" font-weight="700" fill="#FFFFFF" text-anchor="middle">16</text>
<rect x="670" y="390" width="50" height="40" rx="5" fill="#3B82F6"/>
<text x="695" y="415" font-size="16" font-weight="700" fill="#FFFFFF" text-anchor="middle">17</text>
<rect x="725" y="390" width="50" height="40" rx="5" fill="#3B82F6"/>
<text x="750" y="415" font-size="16" font-weight="700" fill="#FFFFFF" text-anchor="middle">18</text>
<rect x="780" y="390" width="50" height="40" rx="5" fill="#3B82F6"/>
<text x="805" y="415" font-size="16" font-weight="700" fill="#FFFFFF" text-anchor="middle">19</text>
<rect x="835" y="390" width="50" height="40" rx="5" fill="#3B82F6"/>
<text x="860" y="415" font-size="16" font-weight="700" fill="#FFFFFF" text-anchor="middle">20</text>
<rect x="890" y="390" width="50" height="40" rx="5" fill="#3B82F6"/>
<text x="915" y="415" font-size="16" font-weight="700" fill="#FFFFFF" text-anchor="middle">21</text>
<rect x="560" y="435" width="50" height="40" rx="5" fill="#3B82F6"/>
<text x="585" y="460" font-size="16" font-weight="700" fill="#FFFFFF" text-anchor="middle">22</text>
<rect x="615" y="435" width="50" height="40" rx="5" fill="#3B82F6"/>
<text x="640" y="460" font-size="16" font-weight="700" fill="#FFFFFF" text-anchor="middle">23</text>
<rect x="670" y="435" width="50" height="40" rx="5" fill="#3B82F6"/>
<text x="695" y="460" font-size="16" font-weight="700" fill="#FFFFFF" text-anchor="middle">24</text>
<rect x="725" y="435" width="50" height="40" rx="5" fill="#3B82F6"/>
<text x="750" y="460" font-size="16" font-weight="700" fill="#FFFFFF" text-anchor="middle">25</text>
<rect x="780" y="435" width="50" height="40" rx="5" fill="#3B82F6"/>
<text x="805" y="460" font-size="16" font-weight="700" fill="#FFFFFF" text-anchor="middle">26</text>
<rect x="835" y="435" width="50" height="40" rx="5" fill="#3B82F6"/>
<text x="860" y="460" font-size="16" font-weight="700" fill="#FFFFFF" text-anchor="middle">27</text>
<rect x="890" y="435" width="50" height="40" rx="5" fill="#3B82F6"/>
<text x="915" y="460" font-size="16" font-weight="700" fill="#FFFFFF" text-anchor="middle">28</text>
<rect x="560" y="480" width="50" height="40" rx="5" fill="#3B82F6"/>
<text x="585" y="505" font-size="16" font-weight="700" fill="#FFFFFF" text-anchor="middle">29</text>
<rect x="615" y="480" width="50" height="40" rx="5" fill="#3B82F6"/>
<text x="640" y="505" font-size="16" font-weight="700" fill="#FFFFFF" text-anchor="middle">30</text>
<rect x="670" y="480" width="50" height="40" rx="5" fill="#DC2626"/>
<text x="695" y="505" font-size="16" font-weight="700" fill="#FFFFFF" text-anchor="middle">31</text>
<text x="695" y="550" font-size="16" font-weight="700" fill="#DC2626" text-anchor="middle">↑ 31 日目</text>
<rect x="80" y="340" width="440" height="50" rx="25" fill="#10B981" opacity="0.15"/>
<rect x="80" y="340" width="440" height="50" rx="25" fill="none" stroke="#10B981" stroke-width="2" stroke-dasharray="6 4"/>
<text x="300" y="372" font-size="16" font-weight="600" fill="#065F46" text-anchor="middle">Keeply · ローカル版本履歴</text>
<text x="300" y="426" font-size="14" fill="#6B7280" text-anchor="middle" font-style="italic">— no 30-day clock, no day 31 cliff</text>
</svg>