<svg xmlns="http://www.w3.org/2000/svg" viewBox="0 0 640 340" font-family="'Inter','Noto Sans TC','PingFang TC','Noto Sans JP','Noto Sans KR',-apple-system,system-ui,sans-serif">
<rect x="0" y="0" width="640" height="340" rx="8" fill="#FFFFFF" stroke="#E5E7EB" stroke-width="1"/>
<text x="20" y="30" font-size="15" font-weight="700" fill="#111827">Oltre il 30° giorno: 4 percorsi di recupero e successi reali</text>
<text x="20" y="72" font-size="12" font-weight="600" fill="#374151">Time Machine / Cronologia file</text>
<text x="20" y="88" font-size="10" fill="#6B7280">Migliore — se configurato prima</text>
<rect x="340" y="66" width="240" height="20" rx="3" fill="#F3F4F6"/>
<rect x="340" y="66" width="204" height="20" rx="3" fill="#34D399" opacity="0.85"/>
<text x="588" y="80" font-size="11" font-weight="600" fill="#34D399">~85%</text>
<text x="20" y="128" font-size="12" font-weight="600" fill="#374151">Escalation supporto Dropbox</text>
<text x="20" y="144" font-size="10" fill="#6B7280">A volte funziona su Business/Enterprise</text>
<rect x="340" y="122" width="240" height="20" rx="3" fill="#F3F4F6"/>
<rect x="340" y="122" width="84" height="20" rx="3" fill="#FBBF24" opacity="0.85"/>
<text x="588" y="136" font-size="11" font-weight="600" fill="#FBBF24">~35%</text>
<text x="20" y="184" font-size="12" font-weight="600" fill="#374151">Cache sync locale residua</text>
<text x="20" y="200" font-size="10" fill="#6B7280">Dipende dallo stato cache OS</text>
<rect x="340" y="178" width="240" height="20" rx="3" fill="#F3F4F6"/>
<rect x="340" y="178" width="48" height="20" rx="3" fill="#FB923C" opacity="0.85"/>
<text x="588" y="192" font-size="11" font-weight="600" fill="#FB923C">~20%</text>
<text x="20" y="240" font-size="12" font-weight="600" fill="#374151">Software di recupero disco (SSD + TRIM)</text>
<text x="20" y="256" font-size="10" fill="#6B7280">Quasi impossibile su SSD moderni</text>
<rect x="340" y="234" width="240" height="20" rx="3" fill="#F3F4F6"/>
<rect x="340" y="234" width="12" height="20" rx="3" fill="#F87171" opacity="0.85"/>
<text x="588" y="248" font-size="11" font-weight="600" fill="#F87171">~5%</text>
<text x="20" y="320" font-size="11" font-style="italic" fill="#6B7280">⚠ 3 dei 4 richiedono preparazione prima dell'incidente. Il quarto è fortuna.</text>
</svg>