<svg xmlns="http://www.w3.org/2000/svg" viewBox="0 0 480 192" font-family="'Noto Sans TC','PingFang TC','Microsoft JhengHei',-apple-system,system-ui,sans-serif">
<rect x="0" y="0" width="480" height="192" rx="8" fill="#FFFFFF" stroke="#E5E7EB" stroke-width="1"/>
<circle cx="20" cy="32" r="4" fill="#3B82F6"/>
<text x="32" y="37" font-size="13" fill="#374151">加完結尾 CTA — 等 Anna 合進來</text>
<rect x="338" y="23" width="54" height="18" rx="9" fill="#DBEAFE" stroke="#BFDBFE" stroke-width="1"/>
<text x="365" y="36" font-size="11" font-weight="500" fill="#1D4ED8" text-anchor="middle">你的</text>
<text x="464" y="36" font-size="11" fill="#9CA3AF" text-anchor="end">10:35</text>
<circle cx="20" cy="64" r="4" fill="#3B82F6"/>
<text x="32" y="69" font-size="13" fill="#374151">加 3 段背景 — by Anna</text>
<rect x="292" y="55" width="100" height="18" rx="9" fill="#DBEAFE" stroke="#BFDBFE" stroke-width="1"/>
<text x="342" y="68" font-size="11" font-weight="500" fill="#1D4ED8" text-anchor="middle">Anna 的</text>
<text x="464" y="68" font-size="11" fill="#9CA3AF" text-anchor="end">10:30</text>
<circle cx="20" cy="96" r="4" fill="#3B82F6"/>
<text x="32" y="101" font-size="13" fill="#374151">自动保存</text>
<text x="464" y="100" font-size="11" fill="#9CA3AF" text-anchor="end">10:00</text>
<circle cx="20" cy="128" r="4" fill="#3B82F6"/>
<text x="32" y="133" font-size="13" fill="#374151">業主第一輪回饋後</text>
<rect x="338" y="119" width="54" height="18" rx="9" fill="#DBEAFE" stroke="#BFDBFE" stroke-width="1"/>
<text x="365" y="132" font-size="11" font-weight="500" fill="#1D4ED8" text-anchor="middle">定稿</text>
<text x="464" y="132" font-size="11" fill="#9CA3AF" text-anchor="end">昨天</text>
<circle cx="20" cy="160" r="4" fill="#3B82F6"/>
<text x="32" y="165" font-size="13" fill="#374151">初稿完成</text>
<rect x="338" y="151" width="54" height="18" rx="9" fill="#DBEAFE" stroke="#BFDBFE" stroke-width="1"/>
<text x="365" y="164" font-size="11" font-weight="500" fill="#1D4ED8" text-anchor="middle">v1</text>
<text x="464" y="164" font-size="11" fill="#9CA3AF" text-anchor="end">上週五</text>
</svg>