<!-- =============================================================
     Cover: excel-data-vanished-postmortem (ja master, SERP-mirror variant A)
     Recipe: SERP-procedural — Excel cell grid background + large article
     title overlay + Excel sheet tabs + small Keeply badge corner
     ============================================================= -->
<svg xmlns="http://www.w3.org/2000/svg" viewBox="0 0 1600 900" fill="none"
     font-family="'Noto Sans JP','Hiragino Sans','Yu Gothic',system-ui,sans-serif">
  <defs>
    <linearGradient id="excel-bg" x1="0" y1="0" x2="0" y2="1">
      <stop offset="0" stop-color="#FFFFFF"/><stop offset="1" stop-color="#F1F5F9"/>
    </linearGradient>
    <linearGradient id="excel-green" x1="0" y1="0" x2="1" y2="1">
      <stop offset="0" stop-color="#217346"/><stop offset="1" stop-color="#1A5E38"/>
    </linearGradient>
    <linearGradient id="keeply-indigo" x1="0" y1="0" x2="1" y2="1">
      <stop offset="0" stop-color="#4F46E5"/><stop offset="1" stop-color="#312E81"/>
    </linearGradient>
    <pattern id="excel-grid" x="0" y="0" width="80" height="30" patternUnits="userSpaceOnUse">
      <rect width="80" height="30" fill="none"/>
      <path d="M0 30 L80 30 M80 0 L80 30" stroke="#D1D5DB" stroke-width="0.5" opacity="0.4"/>
    </pattern>
    <symbol id="keeply-badge" viewBox="0 0 100 30">
      <circle cx="14" cy="15" r="10" fill="url(#keeply-indigo)"/>
      <path d="M10 11 L10 19 M10 15 L16 11 M10 15 L16 19" stroke="white" stroke-width="1.5" fill="none" stroke-linecap="round"/>
      <text x="30" y="20" font-size="13" font-weight="700" fill="#312E81">Keeply</text>
    </symbol>
  </defs>

  <!-- Excel ribbon-like top bar -->
  <rect x="0" y="0" width="1600" height="60" fill="url(#excel-green)"/>
  <text x="40" y="38" font-size="16" font-weight="600" fill="white" letter-spacing="1">EXCEL · 提案_クライアントA_v3.xlsx</text>
  <text x="1560" y="38" font-size="14" font-weight="500" fill="white" opacity="0.85" text-anchor="end">他 1 人が編集中 · OneDrive ✓</text>

  <!-- Formula bar -->
  <rect x="0" y="60" width="1600" height="36" fill="#F8FAFC"/>
  <rect x="40" y="68" width="60" height="20" fill="white" stroke="#CBD5E1" stroke-width="1" rx="2"/>
  <text x="70" y="82" font-size="11" fill="#64748B" text-anchor="middle">A1</text>
  <rect x="120" y="68" width="1440" height="20" fill="white" stroke="#CBD5E1" stroke-width="1" rx="2"/>
  <text x="135" y="82" font-size="11" fill="#9CA3AF" font-family="ui-monospace,monospace">fx: =SUM(販売実績!B2:B250)</text>

  <!-- Excel cell grid background -->
  <rect x="0" y="96" width="1600" height="660" fill="url(#excel-bg)"/>
  <rect x="0" y="96" width="1600" height="660" fill="url(#excel-grid)"/>

  <!-- Column headers (A B C D E F) -->
  <rect x="0" y="96" width="1600" height="22" fill="#F1F5F9" stroke="#CBD5E1" stroke-width="1"/>
  <g font-size="11" font-weight="600" fill="#64748B">
    <text x="80" y="112" text-anchor="middle">A</text>
    <text x="160" y="112" text-anchor="middle">B</text>
    <text x="240" y="112" text-anchor="middle">C</text>
    <text x="320" y="112" text-anchor="middle">D</text>
    <text x="400" y="112" text-anchor="middle">E</text>
    <text x="480" y="112" text-anchor="middle">F</text>
  </g>

  <!-- Row headers (1 2 3 4 5 6 7 8) with empty cells showing "deleted" state -->
  <rect x="0" y="118" width="40" height="660" fill="#F1F5F9" stroke="#CBD5E1" stroke-width="1"/>
  <g font-size="11" font-weight="600" fill="#64748B">
    <text x="20" y="138" text-anchor="middle">1</text>
    <text x="20" y="168" text-anchor="middle">2</text>
    <text x="20" y="198" text-anchor="middle">3</text>
    <text x="20" y="228" text-anchor="middle">4</text>
  </g>

  <!-- Article title (SERP-style large overlay) -->
  <g transform="translate(120, 280)">
    <rect width="1360" height="320" fill="white" stroke="#E2E8F0" stroke-width="1" rx="12" filter="drop-shadow(0 14px 28px rgba(30,41,59,0.12))"/>
    <text x="40" y="60" font-size="14" font-weight="700" fill="#217346" letter-spacing="3">EXCEL 復元 · 事故報告書</text>
    <text x="40" y="130" font-size="42" font-weight="900" fill="#0F172A" letter-spacing="-1">共同編集で消えたエクセルのデータを</text>
    <text x="40" y="186" font-size="42" font-weight="900" fill="#0F172A" letter-spacing="-1">復元する方法と <tspan fill="#217346">4 層救援の限界</tspan></text>
    <text x="40" y="240" font-size="20" font-weight="500" fill="#475569">昼休み明けに開いたら Sheet が空。同僚が cloud で誤って削除。</text>
    <text x="40" y="272" font-size="20" font-weight="500" fill="#475569">OneDrive 同期 / SharePoint バージョン履歴 / Time Machine / 復元ソフトを分単位で検証。</text>
  </g>

  <!-- Excel sheet tabs at bottom -->
  <rect x="0" y="756" width="1600" height="40" fill="#F8FAFC" stroke="#CBD5E1" stroke-width="1"/>
  <g font-size="13" font-weight="600">
    <rect x="40" y="760" width="120" height="32" fill="white" stroke="#CBD5E1" stroke-width="1"/>
    <text x="100" y="780" fill="#0F172A" text-anchor="middle">販売実績</text>
    <rect x="160" y="760" width="100" height="32" fill="#FEE2E2" stroke="#DC2626" stroke-width="1.5"/>
    <text x="210" y="780" fill="#991B1B" text-anchor="middle">見積もり ⚠</text>
    <rect x="260" y="760" width="80" height="32" fill="#F1F5F9" stroke="#CBD5E1" stroke-width="1"/>
    <text x="300" y="780" fill="#64748B" text-anchor="middle">分析</text>
  </g>

  <!-- Bottom bar with Keeply badge + meta -->
  <rect x="0" y="796" width="1600" height="104" fill="#0F172A"/>
  <use href="#keeply-badge" x="40" y="828" width="140" height="40"/>
  <text x="200" y="852" font-size="13" font-weight="500" fill="#94A3B8">keeply-blog · 事故報告書シリーズ</text>
  <text x="1560" y="852" font-size="13" font-weight="500" fill="#94A3B8" text-anchor="end">blog.keeply.work</text>
</svg>
