<!-- =============================================================
     Cover: cloud-version-history-cliff (ja)
     ============================================================= -->
<svg xmlns="http://www.w3.org/2000/svg" viewBox="0 0 1600 900" fill="none"
     font-family="'Noto Sans JP','Hiragino Sans','Yu Gothic','Meiryo',system-ui,sans-serif">

  <defs>
    <linearGradient id="grad-indigo" x1="0" y1="0" x2="1" y2="1"><stop offset="0" stop-color="#4F46E5"/><stop offset="1" stop-color="#4338CA"/></linearGradient>
    <linearGradient id="grad-indigo-deep" x1="0" y1="0" x2="1" y2="1"><stop offset="0" stop-color="#4338CA"/><stop offset="1" stop-color="#312E81"/></linearGradient>
    <linearGradient id="grad-amber" x1="0" y1="0" x2="1" y2="1"><stop offset="0" stop-color="#FFB300"/><stop offset="1" stop-color="#F59E0B"/></linearGradient>
    <linearGradient id="grad-paper" x1="0" y1="0" x2="1" y2="1"><stop offset="0" stop-color="#F8F7FF"/><stop offset="1" stop-color="#EEF2FF"/></linearGradient>
    <linearGradient id="grad-number" x1="0" y1="0" x2="0" y2="1"><stop offset="0" stop-color="#4338CA"/><stop offset="1" stop-color="#312E81"/></linearGradient>
    <linearGradient id="grad-cliff" x1="0" y1="0" x2="0" y2="1"><stop offset="0" stop-color="#FFB300"/><stop offset="1" stop-color="#DC2626"/></linearGradient>
    <pattern id="pat-grid" x="0" y="0" width="40" height="40" patternUnits="userSpaceOnUse"><path d="M 40 0 L 0 0 0 40" fill="none" stroke="#4338CA" stroke-width="1" opacity="0.05"/></pattern>
    <filter id="soft-shadow" x="-10%" y="-10%" width="120%" height="120%"><feDropShadow dx="0" dy="6" stdDeviation="8" flood-color="#312E81" flood-opacity="0.12"/></filter>
  </defs>

  <symbol id="keeply-mark" viewBox="0 0 512 512">
    <path d="M396 129C429 159 448 200 448 255C448 363 360 451 252 451C145 451 58 368 56 263C55 206 75 158 111 123" stroke="url(#grad-indigo)" stroke-width="44" stroke-linecap="round" fill="none"/>
    <path d="M111 123C145 91 190 72 239 72C253 72 265 73 278 76" stroke="url(#grad-amber)" stroke-width="44" stroke-linecap="round" fill="none"/>
    <path d="M236 54L313 79L254 134L236 54Z" fill="url(#grad-amber)"/>
    <rect x="220" y="150" width="152" height="206" rx="32" fill="url(#grad-indigo-deep)" opacity="0.48"/>
    <rect x="192" y="167" width="152" height="206" rx="32" fill="url(#grad-indigo-deep)" opacity="0.72"/>
    <rect x="164" y="184" width="152" height="206" rx="32" fill="url(#grad-indigo)"/>
  </symbol>

  <symbol id="keeply-lockup" viewBox="0 0 260 64">
    <g transform="translate(0,4) scale(0.11)"><use href="#keeply-mark"/></g>
    <text x="66" y="28" font-size="24" font-weight="800" fill="#312E81" font-family="system-ui,sans-serif" letter-spacing="0.2">Keeply</text>
    <text x="66" y="50" font-size="11" font-weight="600" fill="#4338CA" opacity="0.72" font-family="system-ui,sans-serif" letter-spacing="1.5">KEEPLY.WORK</text>
  </symbol>

  <rect width="1600" height="900" fill="url(#grad-paper)"/>
  <rect width="1600" height="900" fill="url(#pat-grid)"/>
  <circle cx="1450" cy="780" r="200" fill="#FDE68A" opacity="0.28"/>
  <circle cx="1180" cy="200" r="240" fill="#DDD6FE" opacity="0.30"/>
  <line x1="720" y1="120" x2="720" y2="780" stroke="#C7D2FE" stroke-width="1" opacity="0.55" stroke-dasharray="4 8"/>

  <g transform="translate(120, 120)">
    <rect x="0" y="2" width="14" height="14" fill="url(#grad-amber)"/>
    <text x="28" y="14" font-size="17" font-weight="800" fill="#312E81" letter-spacing="4">THE RETENTION CLIFF</text>
    <text x="28" y="40" font-size="14" font-weight="600" fill="#4338CA" opacity="0.72" letter-spacing="2">バージョン履歴の天井 · EDITORIAL</text>
  </g>

  <g transform="translate(120, 230)">
    <text x="0" y="120" font-size="180" font-weight="900" fill="url(#grad-number)" letter-spacing="-6">天井</text>
    <text x="0" y="290" font-size="100" font-weight="900" fill="url(#grad-number)" letter-spacing="-4">CEILING</text>
    <path d="M0 320 L420 320" stroke="url(#grad-amber)" stroke-width="6" stroke-linecap="round"/>
  </g>

  <g transform="translate(120, 600)">
    <text x="0" y="0" font-size="26" font-weight="800" fill="#312E81">4 クラウド共通の retention cap</text>
    <text x="0" y="34" font-size="15" font-weight="500" fill="#4338CA" opacity="0.75">THE INVISIBLE VERSION-HISTORY CEILING</text>
  </g>

  <g transform="translate(120, 690)">
    <text x="0" y="0" font-size="19" font-weight="700" fill="#312E81">iCloud · Dropbox · OneDrive · Drive</text>
    <text x="0" y="30" font-size="19" font-weight="700" fill="#312E81">自動であると思ってた——<tspan fill="#F59E0B">3 ヶ月後には消える</tspan></text>
  </g>

  <use href="#keeply-lockup" x="120" y="790" width="200" height="50"/>

  <g transform="translate(820, 130)">
    <text x="0" y="14" font-size="11" font-weight="700" fill="#4338CA" opacity="0.72" letter-spacing="2">RETENTION CEILING（公開ポリシー）</text>
    <text x="660" y="14" font-size="11" font-weight="700" fill="#F59E0B" opacity="0.95" letter-spacing="2" text-anchor="end">⚠️ CLIFF EDGE</text>
  </g>

  <g transform="translate(820, 170)" filter="url(#soft-shadow)">
    <rect x="0" y="0" width="700" height="100" rx="12" fill="#ffffff"/>
    <g transform="translate(20, 24)">
      <circle cx="26" cy="26" r="26" fill="url(#grad-indigo-deep)"/>
      <path d="M14 30 Q14 24 20 24 Q21 18 28 18 Q35 18 36 25 Q40 25 40 30 Q40 34 36 34 L18 34 Q14 34 14 30 Z" fill="#ffffff"/>
    </g>
    <text x="92" y="36" font-size="20" font-weight="800" fill="#312E81">iCloud Drive</text>
    <text x="92" y="58" font-size="12" font-weight="500" fill="#4338CA" opacity="0.7">Apple エコシステム標準</text>
    <g transform="translate(320, 24)">
      <rect x="0" y="0" width="280" height="56" rx="8" fill="#312E81" opacity="0.08" stroke="#4338CA" stroke-width="1.5" stroke-dasharray="5 4"/>
      <text x="140" y="25" font-size="12" font-weight="700" fill="#312E81" text-anchor="middle">一般ファイルの方針</text>
      <text x="140" y="46" font-size="14" font-weight="800" fill="#DC2626" text-anchor="middle">公開されていない</text>
    </g>
    <g transform="translate(640, 50)">
      <circle cx="0" cy="0" r="22" fill="#FEE2E2"/>
      <circle cx="0" cy="0" r="22" fill="none" stroke="#DC2626" stroke-width="2"/>
      <path d="M-8 -8 L8 8 M8 -8 L-8 8" stroke="#DC2626" stroke-width="3" stroke-linecap="round"/>
    </g>
  </g>

  <g transform="translate(820, 290)" filter="url(#soft-shadow)">
    <rect x="0" y="0" width="700" height="100" rx="12" fill="#ffffff"/>
    <g transform="translate(20, 24)">
      <circle cx="26" cy="26" r="26" fill="url(#grad-indigo)"/>
      <g fill="#ffffff"><path d="M16 22 L26 28 L36 22 L26 16 Z"/><path d="M16 30 L26 36 L36 30 L26 24 Z" opacity="0.85"/></g>
    </g>
    <text x="92" y="36" font-size="20" font-weight="800" fill="#312E81">Dropbox</text>
    <text x="92" y="58" font-size="12" font-weight="500" fill="#4338CA" opacity="0.7">Plus / Family / Professional</text>
    <g transform="translate(320, 24)">
      <rect x="0" y="0" width="280" height="56" rx="8" fill="#FFFBEB" stroke="#FDE68A" stroke-width="1.5"/>
      <text x="140" y="25" font-size="13" font-weight="700" fill="#312E81" text-anchor="middle">バージョン保持</text>
      <text x="140" y="46" font-size="15" font-weight="800" fill="#F59E0B" text-anchor="middle">30 / 180 日</text>
    </g>
    <g transform="translate(640, 50)">
      <circle cx="0" cy="0" r="22" fill="#FFFBEB"/>
      <circle cx="0" cy="0" r="22" fill="none" stroke="#F59E0B" stroke-width="2"/>
      <text x="0" y="6" font-size="22" font-weight="900" fill="#F59E0B" text-anchor="middle">!</text>
    </g>
  </g>

  <g transform="translate(820, 410)" filter="url(#soft-shadow)">
    <rect x="0" y="0" width="700" height="100" rx="12" fill="#ffffff"/>
    <g transform="translate(20, 24)">
      <circle cx="26" cy="26" r="26" fill="url(#grad-indigo)"/>
      <path d="M14 32 Q14 26 20 26 Q21 19 28 19 Q35 19 36 26 Q40 26 40 32 Q40 36 36 36 L18 36 Q14 36 14 32 Z" fill="#ffffff"/>
    </g>
    <text x="92" y="36" font-size="20" font-weight="800" fill="#312E81">OneDrive</text>
    <text x="92" y="58" font-size="12" font-weight="500" fill="#4338CA" opacity="0.7">Microsoft 365 個人 / ビジネス</text>
    <g transform="translate(320, 24)">
      <rect x="0" y="0" width="280" height="56" rx="8" fill="#FFFBEB" stroke="#FDE68A" stroke-width="1.5"/>
      <text x="140" y="25" font-size="13" font-weight="700" fill="#312E81" text-anchor="middle">最大保持数</text>
      <text x="140" y="46" font-size="15" font-weight="800" fill="#F59E0B" text-anchor="middle">500 バージョン</text>
    </g>
    <g transform="translate(640, 50)">
      <circle cx="0" cy="0" r="22" fill="#FFFBEB"/>
      <circle cx="0" cy="0" r="22" fill="none" stroke="#F59E0B" stroke-width="2"/>
      <text x="0" y="6" font-size="22" font-weight="900" fill="#F59E0B" text-anchor="middle">!</text>
    </g>
  </g>

  <g transform="translate(820, 530)" filter="url(#soft-shadow)">
    <rect x="0" y="0" width="700" height="100" rx="12" fill="#ffffff"/>
    <g transform="translate(20, 24)">
      <circle cx="26" cy="26" r="26" fill="url(#grad-indigo)"/>
      <path d="M26 14 L40 38 L12 38 Z" fill="#ffffff"/>
    </g>
    <text x="92" y="36" font-size="20" font-weight="800" fill="#312E81">Google Drive</text>
    <text x="92" y="58" font-size="12" font-weight="500" fill="#4338CA" opacity="0.7">Workspace / 個人（非 Google 形式）</text>
    <g transform="translate(320, 24)">
      <rect x="0" y="0" width="280" height="56" rx="8" fill="#FFFBEB" stroke="#FDE68A" stroke-width="1.5"/>
      <text x="140" y="25" font-size="12" font-weight="700" fill="#312E81" text-anchor="middle">非 Google ファイル</text>
      <text x="140" y="46" font-size="14" font-weight="800" fill="#F59E0B" text-anchor="middle">30 日 or 100 バージョン</text>
    </g>
    <g transform="translate(640, 50)">
      <circle cx="0" cy="0" r="22" fill="#FFFBEB"/>
      <circle cx="0" cy="0" r="22" fill="none" stroke="#F59E0B" stroke-width="2"/>
      <text x="0" y="6" font-size="22" font-weight="900" fill="#F59E0B" text-anchor="middle">!</text>
    </g>
  </g>

  <g transform="translate(820, 660)">
    <path d="M0 30 L500 30 L500 30 Q500 36 506 36 L514 60" stroke="#9C98FF" stroke-width="2" fill="none" stroke-linecap="round" opacity="0.5"/>
    <path d="M520 50 L540 70 L520 70 Z" fill="url(#grad-cliff)"/>
    <text x="0" y="50" font-size="15" font-weight="800" fill="#312E81">3 ヶ月後、クライアントが要求　→</text>
    <text x="320" y="50" font-size="15" font-weight="800" fill="#DC2626">cap を過ぎている</text>
    <text x="540" y="74" font-size="13" font-weight="700" fill="#F59E0B">二度と戻らない</text>
  </g>

  <g transform="translate(820, 820)">
    <text x="0" y="0" font-size="13" font-weight="600" fill="#4338CA" opacity="0.72" letter-spacing="1">自動でバージョン履歴がある　≠　永遠にバージョン履歴がある</text>
  </g>

</svg>
