<svg xmlns="http://www.w3.org/2000/svg" viewBox="0 0 640 400" font-family="Segoe UI, system-ui, sans-serif">
  <!-- host-app illustration: Windows Geri Dönüşüm Kutusu — Geri Yükle — geri-donusum-kutusundan-silinen-dosyalari-kurtarma (tr) -->
  <rect x="0" y="0" width="640" height="400" rx="8" fill="#FFFFFF" stroke="#D2D0CE" stroke-width="1"/>

  <!-- window title bar -->
  <rect x="0" y="0" width="640" height="36" rx="8" fill="#F3F2F1"/>
  <rect x="0" y="18" width="640" height="18" fill="#F3F2F1"/>
  <text x="16" y="23" font-size="12" font-weight="600" fill="#323130">🗑️  Geri Dönüşüm Kutusu</text>
  <text x="612" y="23" font-size="13" fill="#605E5C" text-anchor="end">—  ☐  ✕</text>

  <!-- command ribbon -->
  <rect x="0" y="36" width="640" height="32" fill="#FAF9F8"/>
  <line x1="0" y1="68" x2="640" y2="68" stroke="#EDEBE9" stroke-width="1"/>
  <rect x="14" y="44" width="128" height="18" rx="3" fill="#0F6CBD"/>
  <text x="78" y="57" font-size="11" font-weight="600" fill="#FFFFFF" text-anchor="middle">↩ Seçili öğeyi geri yükle</text>
  <text x="160" y="57" font-size="11" fill="#605E5C">Tüm öğeleri geri yükle</text>
  <text x="296" y="57" font-size="11" fill="#A19F9D">Geri Dönüşüm Kutusu'nu boşalt</text>

  <!-- column headers -->
  <text x="28" y="92" font-size="11" font-weight="700" fill="#605E5C">Ad</text>
  <text x="300" y="92" font-size="11" font-weight="700" fill="#605E5C">Özgün konum</text>
  <text x="540" y="92" font-size="11" font-weight="700" fill="#605E5C">Silinme tarihi</text>
  <line x1="16" y1="100" x2="624" y2="100" stroke="#EDEBE9" stroke-width="1"/>

  <!-- selected row -->
  <rect x="16" y="100" width="608" height="32" fill="#CCE4F7"/>
  <text x="28" y="121" font-size="12" fill="#323130">📄  Sozlesme_son.docx</text>
  <text x="300" y="121" font-size="11" fill="#605E5C">C:\Müvekkiller\2026</text>
  <text x="540" y="121" font-size="11" fill="#605E5C">Bugün 11:14</text>
  <line x1="16" y1="132" x2="624" y2="132" stroke="#F3F2F1" stroke-width="1"/>

  <!-- other rows -->
  <text x="28" y="156" font-size="12" fill="#323130">🖼️  eski_logo.png</text>
  <text x="300" y="156" font-size="11" fill="#605E5C">C:\Müvekkiller\2026</text>
  <text x="540" y="156" font-size="11" fill="#605E5C">Bugün 11:14</text>
  <line x1="16" y1="167" x2="624" y2="167" stroke="#F3F2F1" stroke-width="1"/>

  <text x="28" y="191" font-size="12" fill="#323130">📄  notlar.txt</text>
  <text x="300" y="191" font-size="11" fill="#605E5C">C:\Müvekkiller\2026</text>
  <text x="540" y="191" font-size="11" fill="#605E5C">Bugün 11:14</text>
  <line x1="16" y1="202" x2="624" y2="202" stroke="#F3F2F1" stroke-width="1"/>

  <text x="28" y="226" font-size="12" fill="#323130">📊  butce_taslak.xlsx</text>
  <text x="300" y="226" font-size="11" fill="#605E5C">C:\Müvekkiller\2026</text>
  <text x="540" y="226" font-size="11" fill="#605E5C">19.05 16:48</text>

  <!-- right-click context menu over selected row -->
  <rect x="220" y="118" width="170" height="92" rx="4" fill="#FFFFFF" stroke="#C8C6C4" stroke-width="1"/>
  <rect x="224" y="122" width="162" height="26" rx="3" fill="#E7F0FB"/>
  <text x="238" y="139" font-size="12" font-weight="700" fill="#0F6CBD">↩  Geri Yükle</text>
  <line x1="228" y1="152" x2="382" y2="152" stroke="#EDEBE9" stroke-width="1"/>
  <text x="238" y="170" font-size="12" fill="#323130">✂  Kes</text>
  <text x="238" y="194" font-size="12" fill="#323130">🗑  Sil</text>

  <!-- caption -->
  <rect x="0" y="356" width="640" height="44" fill="#EAF6EF"/>
  <line x1="0" y1="356" x2="640" y2="356" stroke="#CDEAD9" stroke-width="1"/>
  <text x="16" y="375" font-size="11.5" fill="#1E7544">✓  Geri Yükle, dosyayı silindiği klasöre (özgün konumuna) geri koyar — masaüstüne değil.</text>
  <text x="16" y="391" font-size="11.5" fill="#1E7544">Dosya hâlâ kutudaysa kurtarma beş saniye sürer.</text>
</svg>
