<svg xmlns="http://www.w3.org/2000/svg" viewBox="0 0 560 300" font-family="'Inter','Segoe UI',-apple-system,system-ui,sans-serif">
  <!-- Keeply version timeline: deleted file still present + Geri Yükle button — geri-donusum-kutusundan-silinen-dosyalari-kurtarma (tr) -->
  <rect x="0" y="0" width="560" height="300" rx="8" fill="#FFFFFF" stroke="#E5E7EB" stroke-width="1"/>

  <!-- top bar -->
  <rect x="0" y="0" width="560" height="34" rx="8" fill="#F9FAFB"/>
  <rect x="0" y="26" width="560" height="8" fill="#F9FAFB"/>
  <line x1="0" y1="34" x2="560" y2="34" stroke="#E5E7EB" stroke-width="1"/>
  <circle cx="20" cy="17" r="7" fill="#4F46E5"/>
  <path d="M16 12 L16 22 M16 17 L23 12 M16 17 L23 22" stroke="white" stroke-width="1.6" fill="none" stroke-linecap="round"/>
  <text x="34" y="22" font-size="12.5" font-weight="800" fill="#312E81">Keeply</text>
  <text x="120" y="22" font-size="11" fill="#9CA3AF">İzlenen klasör: /Müvekkiller/2026</text>

  <!-- ===== LEFT side panel: file list ===== -->
  <rect x="0" y="34" width="186" height="266" fill="#FAFAFE"/>
  <line x1="186" y1="34" x2="186" y2="300" stroke="#E5E7EB" stroke-width="1"/>
  <text x="14" y="56" font-size="10.5" font-weight="700" fill="#9CA3AF" letter-spacing="0.5">DOSYALAR</text>

  <text x="16" y="82" font-size="12" fill="#374151">📊  butce_2026.xlsx</text>
  <text x="16" y="108" font-size="12" fill="#374151">📄  notlar.docx</text>

  <!-- selected: deleted file, still present in the panel -->
  <rect x="6" y="120" width="174" height="40" rx="6" fill="#EEF2FF"/>
  <rect x="6" y="120" width="3" height="40" rx="2" fill="#4F46E5"/>
  <text x="16" y="138" font-size="12" font-weight="700" fill="#312E81">📄  Sozlesme_son.docx</text>
  <rect x="16" y="146" width="86" height="13" rx="6" fill="#FEE2E2"/>
  <text x="22" y="156" font-size="9" font-weight="700" fill="#B91C1C">SİLİNDİ · görünüyor</text>

  <text x="16" y="186" font-size="12" fill="#374151">🖼️  eski_logo.png</text>
  <text x="16" y="212" font-size="12" fill="#374151">📊  teklif.xlsx</text>

  <!-- ===== RIGHT: version timeline of the deleted file ===== -->
  <text x="206" y="56" font-size="12.5" font-weight="800" fill="#312E81">Sozlesme_son.docx — sürüm geçmişi</text>

  <!-- selected version row -->
  <rect x="200" y="68" width="346" height="34" rx="6" fill="#EEF2FF"/>
  <circle cx="218" cy="85" r="6" fill="#4F46E5"/>
  <text x="234" y="82" font-size="11" fill="#6B7280">bugün 11:00</text>
  <text x="234" y="96" font-size="11.5" font-weight="700" fill="#312E81">Otomatik sürüm — silmeden önceki son hâl</text>

  <line x1="218" y1="102" x2="218" y2="250" stroke="#E4E3FF" stroke-width="2"/>

  <g transform="translate(0,118)">
    <circle cx="218" cy="0" r="5" fill="#9C98FF"/>
    <text x="234" y="-3" font-size="11" fill="#9CA3AF">bugün 10:30</text>
    <text x="234" y="11" font-size="11.5" fill="#374151">Otomatik sürüm</text>
  </g>
  <g transform="translate(0,150)">
    <circle cx="218" cy="0" r="5" fill="#F59E0B"/>
    <text x="234" y="-3" font-size="11" fill="#9CA3AF">bugün 09:40</text>
    <text x="234" y="11" font-size="11.5" fill="#92400E">Sürüm kaydet — müvekkile gönderilen hâl</text>
  </g>
  <g transform="translate(0,182)">
    <circle cx="218" cy="0" r="5" fill="#9C98FF"/>
    <text x="234" y="-3" font-size="11" fill="#9CA3AF">19.05 16:48</text>
    <text x="234" y="11" font-size="11.5" fill="#374151">Otomatik sürüm</text>
  </g>
  <g transform="translate(0,214)">
    <circle cx="218" cy="0" r="6.5" fill="#FFFFFF" stroke="#22C55E" stroke-width="2.5"/>
    <path d="M214 0 L217 3 L222 -3" stroke="#22C55E" stroke-width="2.2" fill="none" stroke-linecap="round" stroke-linejoin="round"/>
    <text x="234" y="-3" font-size="11" fill="#9CA3AF">15.05 09:14</text>
    <text x="234" y="11" font-size="11.5" fill="#16A34A">İlk sürüm</text>
  </g>

  <!-- Geri Yükle button -->
  <rect x="408" y="68" width="128" height="34" rx="7" fill="#4F46E5"/>
  <text x="472" y="90" font-size="13" font-weight="800" fill="#FFFFFF" text-anchor="middle">↩ Geri Yükle</text>

  <!-- footer note -->
  <line x1="200" y1="266" x2="546" y2="266" stroke="#F3F4F6" stroke-width="1"/>
  <text x="206" y="286" font-size="10" fill="#10B981">✓ Silinen dosya çizelgede duruyor — Ctrl+S'ye bağlı değil, kendi takvimine göre çalışır.</text>
</svg>
