<svg xmlns="http://www.w3.org/2000/svg" viewBox="0 0 480 300" font-family="Inter, Segoe UI, -apple-system, system-ui, sans-serif">
  <!-- Keeply UI mock: oś czasu wersji z usuniętym plikiem wciąż nienaruszonym + przycisk Przywróć — jak-odzyskac-usuniete-pliki-z-kosza (pl) -->
  <rect x="0" y="0" width="480" height="300" rx="8" fill="#FFFFFF" stroke="#E5E7EB" stroke-width="1"/>
  <rect x="0" y="0" width="480" height="36" rx="8" fill="#F9FAFB"/>
  <rect x="0" y="28" width="480" height="9" fill="#F9FAFB"/>
  <line x1="0" y1="36" x2="480" y2="36" stroke="#E5E7EB" stroke-width="1"/>
  <text x="14" y="23" font-size="13" font-weight="700" fill="#374151">🗂️  /Klienci/2026 — historia</text>
  <text x="462" y="24" font-size="14" fill="#9CA3AF" text-anchor="end">✕</text>

  <!-- highlighted restorable deleted file -->
  <rect x="0" y="36" width="480" height="48" fill="#EEF2FF"/>
  <text x="14" y="58" font-size="11" fill="#6B7280">dziś 14:30</text>
  <text x="100" y="56" font-size="12.5" fill="#374151">Auto-wersja (co 30 min)</text>
  <text x="100" y="73" font-size="11.5" fill="#4F46E5">📄 Umowa_klient_final.docx — obecny</text>
  <rect x="372" y="50" width="92" height="22" rx="4" fill="#4F46E5"/>
  <text x="418" y="65" font-size="11" font-weight="600" fill="#FFFFFF" text-anchor="middle">Przywróć</text>
  <line x1="0" y1="84" x2="480" y2="84" stroke="#E0E7FF" stroke-width="1"/>

  <text x="14" y="108" font-size="11" fill="#9CA3AF">dziś 14:00</text>
  <text x="100" y="108" font-size="12.5" fill="#374151">Auto-wersja (co 30 min)</text>
  <text x="468" y="108" font-size="11" fill="#D1D5DB" text-anchor="end">ty</text>
  <line x1="0" y1="122" x2="480" y2="122" stroke="#F3F4F6" stroke-width="1"/>

  <text x="14" y="146" font-size="11" fill="#9CA3AF">dziś 11:20</text>
  <text x="100" y="146" font-size="12.5" fill="#374151">Zapisz wersję — przed wysłaniem do klienta</text>
  <text x="468" y="146" font-size="11" fill="#D1D5DB" text-anchor="end">ty</text>
  <line x1="0" y1="160" x2="480" y2="160" stroke="#F3F4F6" stroke-width="1"/>

  <text x="14" y="184" font-size="11" fill="#9CA3AF">dziś 09:30</text>
  <text x="100" y="184" font-size="12.5" fill="#374151">Auto-wersja (co 30 min)</text>
  <text x="468" y="184" font-size="11" fill="#D1D5DB" text-anchor="end">ty</text>
  <line x1="0" y1="198" x2="480" y2="198" stroke="#F3F4F6" stroke-width="1"/>

  <text x="14" y="222" font-size="11" fill="#9CA3AF">19.05 17:20</text>
  <text x="100" y="222" font-size="12.5" fill="#374151">Zamknięcie miesiąca</text>
  <text x="468" y="222" font-size="11" fill="#D1D5DB" text-anchor="end">ty</text>
  <line x1="0" y1="236" x2="480" y2="236" stroke="#F3F4F6" stroke-width="1"/>

  <text x="14" y="260" font-size="11" fill="#9CA3AF">15.05 09:14</text>
  <text x="100" y="260" font-size="12.5" fill="#374151">Pierwsza wersja</text>
  <text x="468" y="260" font-size="11" fill="#D1D5DB" text-anchor="end">ty</text>
  <line x1="0" y1="274" x2="480" y2="274" stroke="#F3F4F6" stroke-width="1"/>

  <text x="14" y="292" font-size="10" fill="#10B981">✓ Usunięty plik wciąż jest na osi czasu — przywrócenie to jedno kliknięcie, bez wyścigu z czasem.</text>
</svg>
