<svg xmlns="http://www.w3.org/2000/svg" viewBox="0 0 480 300" font-family="'Noto Sans TC','PingFang TC','Microsoft JhengHei',system-ui,sans-serif">
<rect x="0" y="0" width="480" height="300" rx="8" fill="#FFFFFF" stroke="#E5E7EB" stroke-width="1"/>
<text x="20" y="28" font-size="13" font-weight="700" fill="#1F2937">版本歷史 · 提案_客戶A_v3.xlsx</text>
<rect x="0" y="42" width="480" height="1" fill="#E5E7EB"/>
<rect x="12" y="54" width="456" height="48" fill="#FEE2E2" rx="4"/>
<rect x="12" y="54" width="4" height="48" fill="#DC2626" rx="2"/>
<text x="28" y="74" font-size="13" font-weight="600" fill="#7F1D1D">v8 · 12:46 小林（後輩）</text>
<text x="28" y="92" font-size="11" fill="#991B1B">刪除 Sheet「業績實績」（記成 major version）</text>
<rect x="380" y="64" width="76" height="28" fill="white" stroke="#DC2626" stroke-width="1" rx="4"/>
<text x="418" y="83" font-size="11" font-weight="600" fill="#DC2626" text-anchor="middle">注意：已刪</text>
<rect x="12" y="112" width="456" height="48" fill="#DBEAFE" rx="4"/>
<rect x="12" y="112" width="4" height="48" fill="#2563EB" rx="2"/>
<text x="28" y="132" font-size="13" font-weight="600" fill="#1E3A8A">v7 · 昨天 17:50 陳小姐</text>
<text x="28" y="150" font-size="11" fill="#1E40AF">輸入 250 筆 → 關檔</text>
<rect x="380" y="122" width="76" height="28" fill="#2563EB" rx="4"/>
<text x="418" y="141" font-size="12" font-weight="600" fill="white" text-anchor="middle">還原</text>
<rect x="12" y="170" width="456" height="40" fill="#F3F4F6" rx="4"/>
<text x="28" y="190" font-size="13" fill="#374151">v6 · 昨天 17:30 陳小姐</text>
<text x="28" y="204" font-size="11" fill="#6B7280">編輯中（自動儲存）</text>
<rect x="12" y="218" width="456" height="32" fill="#F9FAFB" rx="4"/>
<text x="28" y="238" font-size="12" fill="#6B7280">v5 · 昨天 17:15 ...</text>
<text x="240" y="278" font-size="10" fill="#9CA3AF" text-anchor="middle" font-style="italic">⚠ v8 → v7 還原後，指向已刪 Sheet 的公式還是 #REF!</text>
</svg>
