<svg xmlns="http://www.w3.org/2000/svg" viewBox="0 0 480 240" font-family="'Inter','Noto Sans TC','PingFang TC','Microsoft JhengHei','Noto Sans JP','Noto Sans KR',-apple-system,system-ui,sans-serif">
<rect x="0" y="0" width="480" height="240" rx="8" fill="#FFFFFF" stroke="#E5E7EB" stroke-width="1"/>
<rect x="0" y="0" width="480" height="36" rx="8" fill="#F9FAFB"/>
<rect x="0" y="28" width="480" height="9" fill="#F9FAFB"/>
<line x1="0" y1="36" x2="480" y2="36" stroke="#E5E7EB" stroke-width="1"/>
<text x="14" y="22" font-size="14">📄</text>
<text x="34" y="23" font-size="13" font-weight="700" fill="#374151">contract_markup.docx</text>
<text x="200" y="23" font-size="11" fill="#9CA3AF">/Legal/Acme/2026/</text>
<text x="462" y="24" font-size="14" fill="#9CA3AF" text-anchor="end">✕</text>
<rect x="0" y="36" width="480" height="36" fill="#EEF2FF" opacity="0.5"/>
<text x="14" y="58" font-size="11" fill="#6B7280">今天 15:00</text>
<text x="110" y="58" font-size="13" fill="#374151">自动快照（每 30 分钟）</text>
<text x="468" y="58" font-size="11" fill="#D1D5DB" text-anchor="end">自动</text>
<line x1="0" y1="72" x2="480" y2="72" stroke="#F3F4F6" stroke-width="1"/>
<text x="14" y="94" font-size="11" fill="#9CA3AF">今天 14:30</text>
<text x="110" y="94" font-size="13" fill="#374151">自动快照</text>
<text x="468" y="94" font-size="11" fill="#D1D5DB" text-anchor="end">自动</text>
<line x1="0" y1="108" x2="480" y2="108" stroke="#F3F4F6" stroke-width="1"/>
<text x="14" y="130" font-size="11" fill="#9CA3AF">今天 14:00</text>
<text x="110" y="130" font-size="13" fill="#374151">保存版本：客户要的修订 v2</text>
<text x="468" y="130" font-size="11" fill="#D1D5DB" text-anchor="end">我</text>
<line x1="0" y1="144" x2="480" y2="144" stroke="#F3F4F6" stroke-width="1"/>
<text x="14" y="166" font-size="11" fill="#9CA3AF">今天 11:20</text>
<text x="110" y="166" font-size="13" fill="#374151">自动快照</text>
<text x="468" y="166" font-size="11" fill="#D1D5DB" text-anchor="end">自动</text>
<line x1="0" y1="180" x2="480" y2="180" stroke="#F3F4F6" stroke-width="1"/>
<text x="14" y="202" font-size="11" fill="#9CA3AF">昨天 17:45</text>
<text x="110" y="202" font-size="13" fill="#374151">保存版本：初稿给合伙人</text>
<text x="468" y="202" font-size="11" fill="#D1D5DB" text-anchor="end">我</text>
<line x1="0" y1="216" x2="480" y2="216" stroke="#F3F4F6" stroke-width="1"/>
<text x="14" y="232" font-size="10" fill="#10B981">✓ 5 个版本已保留 · 每 30 分钟自动 + 手动保存版本 · 强制关闭也在</text>
</svg>