<svg xmlns="http://www.w3.org/2000/svg" viewBox="0 0 480 224" font-family="'Noto Sans TC','PingFang TC','Microsoft JhengHei',-apple-system,system-ui,sans-serif">
<rect x="0" y="0" width="480" height="224" rx="8" fill="#FFFFFF" stroke="#E5E7EB" stroke-width="1"/>
<circle cx="20" cy="32" r="4" fill="#3B82F6"/>
<text x="32" y="37" font-size="13" fill="#374151">自動儲存 — 收尾修飾</text>
<text x="464" y="36" font-size="11" fill="#9CA3AF" text-anchor="end">今天 14:30</text>
<circle cx="20" cy="64" r="4" fill="#3B82F6"/>
<text x="32" y="69" font-size="13" fill="#374151">客戶簽約版 — 5/4 業主確認</text>
<rect x="338" y="55" width="54" height="18" rx="9" fill="#DBEAFE" stroke="#BFDBFE" stroke-width="1"/>
<text x="365" y="68" font-size="11" font-weight="500" fill="#1D4ED8" text-anchor="middle">定版</text>
<rect x="276" y="55" width="58" height="18" rx="9" fill="#DBEAFE" stroke="#BFDBFE" stroke-width="1"/>
<text x="305" y="68" font-size="11" font-weight="500" fill="#1D4ED8" text-anchor="middle">客戶簽</text>
<text x="464" y="68" font-size="11" fill="#9CA3AF" text-anchor="end">5/4 11:00</text>
<circle cx="20" cy="96" r="4" fill="#3B82F6"/>
<text x="32" y="101" font-size="13" fill="#374151">自動儲存</text>
<text x="464" y="100" font-size="11" fill="#9CA3AF" text-anchor="end">5/3 晚上</text>
<circle cx="20" cy="128" r="4" fill="#3B82F6"/>
<text x="32" y="133" font-size="13" fill="#374151">老闆第三輪修改</text>
<rect x="334" y="119" width="58" height="18" rx="9" fill="#DBEAFE" stroke="#BFDBFE" stroke-width="1"/>
<text x="363" y="132" font-size="11" font-weight="500" fill="#1D4ED8" text-anchor="middle">老闆改</text>
<text x="464" y="132" font-size="11" fill="#9CA3AF" text-anchor="end">5/2</text>
<circle cx="20" cy="160" r="4" fill="#3B82F6"/>
<text x="32" y="165" font-size="13" fill="#374151">客戶第一輪回饋後</text>
<rect x="320" y="151" width="72" height="18" rx="9" fill="#DBEAFE" stroke="#BFDBFE" stroke-width="1"/>
<text x="356" y="164" font-size="11" font-weight="500" fill="#1D4ED8" text-anchor="middle">客戶回饋</text>
<text x="464" y="164" font-size="11" fill="#9CA3AF" text-anchor="end">4/28</text>
<circle cx="20" cy="192" r="4" fill="#3B82F6"/>
<text x="32" y="197" font-size="13" fill="#374151">初稿提案</text>
<rect x="338" y="183" width="54" height="18" rx="9" fill="#DBEAFE" stroke="#BFDBFE" stroke-width="1"/>
<text x="365" y="196" font-size="11" font-weight="500" fill="#1D4ED8" text-anchor="middle">初稿</text>
<text x="464" y="196" font-size="11" fill="#9CA3AF" text-anchor="end">4/20</text>
</svg>