<svg xmlns="http://www.w3.org/2000/svg" viewBox="0 0 480 264" font-family="'Inter',-apple-system,system-ui,sans-serif">
  <!-- panel background -->
  <rect x="0" y="0" width="480" height="264" rx="8" fill="#FFFFFF" stroke="#E5E7EB" stroke-width="1"/>

  <!-- Header: filename + dirPath + close -->
  <rect x="0" y="0" width="480" height="36" rx="8" fill="#F9FAFB"/>
  <rect x="0" y="28" width="480" height="9" fill="#F9FAFB"/>
  <line x1="0" y1="36" x2="480" y2="36" stroke="#E5E7EB" stroke-width="1"/>
  <text x="14" y="22" font-size="14">📄</text>
  <text x="34" y="23" font-size="13" font-weight="700" fill="#374151">IT01234567890_FE_00187.xml</text>
  <text x="262" y="23" font-size="11" fill="#9CA3AF">/Archivio/2026/Q1/</text>
  <text x="462" y="24" font-size="14" fill="#9CA3AF" text-anchor="end">✕</text>

  <!-- Version row 1 (selected/today) -->
  <rect x="0" y="36" width="480" height="36" fill="#EEF2FF" opacity="0.5"/>
  <text x="14" y="58" font-size="11" fill="#6B7280">oggi 09:14</text>
  <text x="94" y="58" font-size="13" fill="#374151">Pronta per consultazione AdE</text>
  <text x="468" y="58" font-size="11" fill="#D1D5DB" text-anchor="end">io</text>

  <!-- Version row 2 -->
  <line x1="0" y1="72" x2="480" y2="72" stroke="#F3F4F6" stroke-width="1"/>
  <text x="14" y="94" font-size="11" fill="#9CA3AF">04/15 16:20</text>
  <text x="94" y="94" font-size="13" fill="#374151">Verifica integrità trimestrale</text>
  <text x="468" y="94" font-size="11" fill="#D1D5DB" text-anchor="end">io</text>

  <!-- Version row 3 -->
  <line x1="0" y1="108" x2="480" y2="108" stroke="#F3F4F6" stroke-width="1"/>
  <text x="14" y="130" font-size="11" fill="#9CA3AF">03/31 17:00</text>
  <text x="94" y="130" font-size="13" fill="#374151">Archivio Q1 2026 chiuso</text>
  <text x="468" y="130" font-size="11" fill="#D1D5DB" text-anchor="end">io</text>

  <!-- Version row 4 -->
  <line x1="0" y1="144" x2="480" y2="144" stroke="#F3F4F6" stroke-width="1"/>
  <text x="14" y="166" font-size="11" fill="#9CA3AF">03/15 09:30</text>
  <text x="94" y="166" font-size="13" fill="#374151">Annotata — dichiarazione IVA</text>
  <text x="468" y="166" font-size="11" fill="#D1D5DB" text-anchor="end">io</text>

  <!-- Version row 5 -->
  <line x1="0" y1="180" x2="480" y2="180" stroke="#F3F4F6" stroke-width="1"/>
  <text x="14" y="202" font-size="11" fill="#9CA3AF">02/14 11:42</text>
  <text x="94" y="202" font-size="13" fill="#374151">Emissione SDI ricevuta</text>
  <text x="468" y="202" font-size="11" fill="#D1D5DB" text-anchor="end">sistema</text>

  <!-- Version row 6 (very old, simulated date format hint via message) -->
  <line x1="0" y1="216" x2="480" y2="216" stroke="#F3F4F6" stroke-width="1"/>
  <text x="14" y="238" font-size="11" fill="#9CA3AF">02/14 09:14</text>
  <text x="94" y="238" font-size="13" fill="#374151">Bozza pre-trasmissione</text>
  <text x="468" y="238" font-size="11" fill="#D1D5DB" text-anchor="end">io</text>

  <!-- Footer info -->
  <line x1="0" y1="252" x2="480" y2="252" stroke="#F3F4F6" stroke-width="1"/>
  <text x="14" y="261" font-size="10" fill="#10B981">✓ 6 versioni conservate · obbligo decennale fino al 2036</text>
</svg>
