<svg xmlns="http://www.w3.org/2000/svg" viewBox="0 0 480 256" font-family="'Noto Sans TC','PingFang TC','Microsoft JhengHei',-apple-system,system-ui,sans-serif">
<rect x="0" y="0" width="480" height="256" rx="8" fill="#FFFFFF" stroke="#E5E7EB" stroke-width="1"/>
<circle cx="20" cy="32" r="4" fill="#3B82F6"/>
<text x="32" y="37" font-size="13" fill="#374151">Archivio Q1 2026 — copia lo…</text>
<rect x="278" y="23" width="114" height="18" rx="9" fill="#DBEAFE" stroke="#BFDBFE" stroke-width="1"/>
<text x="335" y="36" font-size="11" font-weight="500" fill="#1D4ED8" text-anchor="middle">Q1 2026</text>
<text x="464" y="36" font-size="11" fill="#9CA3AF" text-anchor="end">oggi 09:14</text>
<circle cx="20" cy="64" r="4" fill="#3B82F6"/>
<text x="32" y="69" font-size="13" fill="#374151">Salvataggio auto</text>
<text x="464" y="68" font-size="11" fill="#9CA3AF" text-anchor="end">30 min fa</text>
<circle cx="20" cy="96" r="4" fill="#3B82F6"/>
<text x="32" y="101" font-size="13" fill="#374151">Q4 2025 chiuso</text>
<rect x="278" y="87" width="114" height="18" rx="9" fill="#DBEAFE" stroke="#BFDBFE" stroke-width="1"/>
<text x="335" y="100" font-size="11" font-weight="500" fill="#1D4ED8" text-anchor="middle">Q4 2025</text>
<text x="464" y="100" font-size="11" fill="#9CA3AF" text-anchor="end">3 mesi fa</text>
<circle cx="20" cy="128" r="4" fill="#3B82F6"/>
<text x="32" y="133" font-size="13" fill="#374151">Archivio Q3 2025 — 47 XML</text>
<rect x="278" y="119" width="114" height="18" rx="9" fill="#DBEAFE" stroke="#BFDBFE" stroke-width="1"/>
<text x="335" y="132" font-size="11" font-weight="500" fill="#1D4ED8" text-anchor="middle">Q3 2025</text>
<text x="464" y="132" font-size="11" fill="#9CA3AF" text-anchor="end">6 mesi fa</text>
<circle cx="20" cy="160" r="4" fill="#3B82F6"/>
<text x="32" y="165" font-size="13" fill="#374151">Adesione AdE rinnova…</text>
<rect x="222" y="151" width="170" height="18" rx="9" fill="#DBEAFE" stroke="#BFDBFE" stroke-width="1"/>
<text x="307" y="164" font-size="11" font-weight="500" fill="#1D4ED8" text-anchor="middle">Adempimento</text>
<text x="464" y="164" font-size="11" fill="#9CA3AF" text-anchor="end">9 mesi fa</text>
<circle cx="20" cy="192" r="4" fill="#3B82F6"/>
<text x="32" y="197" font-size="13" fill="#374151">Archivio Q2 2025 — 53 XML</text>
<rect x="278" y="183" width="114" height="18" rx="9" fill="#DBEAFE" stroke="#BFDBFE" stroke-width="1"/>
<text x="335" y="196" font-size="11" font-weight="500" fill="#1D4ED8" text-anchor="middle">Q2 2025</text>
<text x="464" y="196" font-size="11" fill="#9CA3AF" text-anchor="end">9 mesi fa</text>
<circle cx="20" cy="224" r="4" fill="#3B82F6"/>
<text x="32" y="229" font-size="13" fill="#374151">Backup anno fiscale 2024</text>
<rect x="250" y="215" width="142" height="18" rx="9" fill="#DBEAFE" stroke="#BFDBFE" stroke-width="1"/>
<text x="321" y="228" font-size="11" font-weight="500" fill="#1D4ED8" text-anchor="middle">Decennale</text>
<text x="464" y="228" font-size="11" fill="#9CA3AF" text-anchor="end">16 mesi fa</text>
</svg>