<svg xmlns="http://www.w3.org/2000/svg" viewBox="0 0 480 320" font-family="'Noto Sans KR','Apple SD Gothic Neo','Malgun Gothic',system-ui,sans-serif">
<rect x="0" y="0" width="480" height="32" fill="#F8FAFC"/>
<rect x="12" y="6" width="60" height="20" fill="white" stroke="#CBD5E1" stroke-width="1" rx="2"/>
<text x="42" y="20" font-size="11" fill="#64748B" text-anchor="middle">B2</text>
<rect x="80" y="6" width="388" height="20" fill="white" stroke="#CBD5E1" stroke-width="1" rx="2"/>
<text x="92" y="20" font-size="10" fill="#DC2626" font-family="ui-monospace,monospace">fx: =VLOOKUP(A2,판매실적!A:B,2,FALSE) ← 참조 Sheet 삭제됨</text>
<rect x="0" y="32" width="480" height="22" fill="#F1F5F9" stroke="#CBD5E1" stroke-width="1"/>
<g font-size="11" font-weight="600" fill="#64748B">
  <text x="48" y="48" text-anchor="middle">A</text>
  <text x="128" y="48" text-anchor="middle">B</text>
  <text x="208" y="48" text-anchor="middle">C</text>
  <text x="288" y="48" text-anchor="middle">D</text>
  <text x="368" y="48" text-anchor="middle">E</text>
</g>
<rect x="0" y="54" width="22" height="260" fill="#F1F5F9" stroke="#CBD5E1" stroke-width="1"/>
<g font-size="11" font-weight="600" fill="#64748B">
  <text x="11" y="74" text-anchor="middle">1</text>
  <text x="11" y="104" text-anchor="middle">2</text>
  <text x="11" y="134" text-anchor="middle">3</text>
  <text x="11" y="164" text-anchor="middle">4</text>
  <text x="11" y="194" text-anchor="middle">5</text>
  <text x="11" y="224" text-anchor="middle">6</text>
  <text x="11" y="254" text-anchor="middle">7</text>
</g>
<g stroke="#CBD5E1" stroke-width="0.5">
  <line x1="22" y1="84" x2="480" y2="84"/>
  <line x1="22" y1="114" x2="480" y2="114"/>
  <line x1="22" y1="144" x2="480" y2="144"/>
  <line x1="22" y1="174" x2="480" y2="174"/>
  <line x1="22" y1="204" x2="480" y2="204"/>
  <line x1="22" y1="234" x2="480" y2="234"/>
  <line x1="22" y1="264" x2="480" y2="264"/>
  <line x1="88" y1="54" x2="88" y2="294"/>
  <line x1="168" y1="54" x2="168" y2="294"/>
  <line x1="248" y1="54" x2="248" y2="294"/>
  <line x1="328" y1="54" x2="328" y2="294"/>
  <line x1="408" y1="54" x2="408" y2="294"/>
</g>
<g font-size="10" font-weight="600" fill="#1F2937"><text x="48" y="74" text-anchor="middle">고객</text><text x="128" y="74" text-anchor="middle">매출</text><text x="208" y="74" text-anchor="middle">수수료</text><text x="288" y="74" text-anchor="middle">순익</text><text x="368" y="74" text-anchor="middle">전년비</text></g>
<g font-size="10" fill="#1F2937"><text x="48" y="104" text-anchor="middle">A 상사</text><text x="48" y="134" text-anchor="middle">B 공업</text><text x="48" y="164" text-anchor="middle">C 제작</text><text x="48" y="194" text-anchor="middle">D 상회</text><text x="48" y="224" text-anchor="middle">E 개발</text></g>
<g font-size="10" font-weight="700" fill="#DC2626"><rect x="88" y="84" width="80" height="30" fill="#FEE2E2"/><text x="128" y="104" text-anchor="middle">#REF!</text><rect x="88" y="114" width="80" height="30" fill="#FEE2E2"/><text x="128" y="134" text-anchor="middle">#REF!</text><rect x="88" y="144" width="80" height="30" fill="#FEE2E2"/><text x="128" y="164" text-anchor="middle">#REF!</text><rect x="88" y="174" width="80" height="30" fill="#FEE2E2"/><text x="128" y="194" text-anchor="middle">#REF!</text><rect x="88" y="204" width="80" height="30" fill="#FEE2E2"/><text x="128" y="224" text-anchor="middle">#REF!</text><rect x="88" y="234" width="80" height="30" fill="#FEE2E2"/><text x="128" y="254" text-anchor="middle">#REF!</text><rect x="168" y="84" width="80" height="30" fill="#FEE2E2"/><text x="208" y="104" text-anchor="middle">#REF!</text><rect x="168" y="114" width="80" height="30" fill="#FEE2E2"/><text x="208" y="134" text-anchor="middle">#REF!</text><rect x="168" y="144" width="80" height="30" fill="#FEE2E2"/><text x="208" y="164" text-anchor="middle">#REF!</text><rect x="168" y="174" width="80" height="30" fill="#FEE2E2"/><text x="208" y="194" text-anchor="middle">#REF!</text><rect x="168" y="204" width="80" height="30" fill="#FEE2E2"/><text x="208" y="224" text-anchor="middle">#REF!</text><rect x="168" y="234" width="80" height="30" fill="#FEE2E2"/><text x="208" y="254" text-anchor="middle">#REF!</text><rect x="248" y="84" width="80" height="30" fill="#FEE2E2"/><text x="288" y="104" text-anchor="middle">#REF!</text><rect x="248" y="114" width="80" height="30" fill="#FEE2E2"/><text x="288" y="134" text-anchor="middle">#REF!</text><rect x="248" y="144" width="80" height="30" fill="#FEE2E2"/><text x="288" y="164" text-anchor="middle">#REF!</text><rect x="248" y="174" width="80" height="30" fill="#FEE2E2"/><text x="288" y="194" text-anchor="middle">#REF!</text><rect x="248" y="204" width="80" height="30" fill="#FEE2E2"/><text x="288" y="224" text-anchor="middle">#REF!</text><rect x="248" y="234" width="80" height="30" fill="#FEE2E2"/><text x="288" y="254" text-anchor="middle">#REF!</text></g>
</svg>
