<svg xmlns="http://www.w3.org/2000/svg" viewBox="0 0 480 192" font-family="'Noto Sans TC','PingFang TC','Microsoft JhengHei',-apple-system,system-ui,sans-serif">
<rect x="0" y="0" width="480" height="192" rx="8" fill="#FFFFFF" stroke="#E5E7EB" stroke-width="1"/>
<circle cx="20" cy="32" r="4" fill="#3B82F6"/>
<text x="32" y="37" font-size="13" fill="#374151">Tina 刪除 brand-book/（管理員權限）</text>
<rect x="320" y="23" width="72" height="18" rx="9" fill="#DBEAFE" stroke="#BFDBFE" stroke-width="1"/>
<text x="356" y="36" font-size="11" font-weight="500" fill="#1D4ED8" text-anchor="middle">⚠ 已刪</text>
<text x="464" y="36" font-size="11" fill="#9CA3AF" text-anchor="end">週六 23:03</text>
<circle cx="20" cy="64" r="4" fill="#3B82F6"/>
<text x="32" y="69" font-size="13" fill="#374151">自動儲存</text>
<text x="464" y="68" font-size="11" fill="#9CA3AF" text-anchor="end">週六 22:50</text>
<circle cx="20" cy="96" r="4" fill="#3B82F6"/>
<text x="32" y="101" font-size="13" fill="#374151">4 月 brand-book 交付 — 完整集</text>
<rect x="338" y="87" width="54" height="18" rx="9" fill="#DBEAFE" stroke="#BFDBFE" stroke-width="1"/>
<text x="365" y="100" font-size="11" font-weight="500" fill="#1D4ED8" text-anchor="middle">凍結</text>
<rect x="262" y="87" width="72" height="18" rx="9" fill="#DBEAFE" stroke="#BFDBFE" stroke-width="1"/>
<text x="298" y="100" font-size="11" font-weight="500" fill="#1D4ED8" text-anchor="middle">業主交付</text>
<text x="464" y="100" font-size="11" fill="#9CA3AF" text-anchor="end">4 月 12 日</text>
<circle cx="20" cy="128" r="4" fill="#3B82F6"/>
<text x="32" y="133" font-size="13" fill="#374151">自動儲存</text>
<text x="464" y="132" font-size="11" fill="#9CA3AF" text-anchor="end">4 月 10 日</text>
<circle cx="20" cy="160" r="4" fill="#3B82F6"/>
<text x="32" y="165" font-size="13" fill="#374151">brand-book 初版</text>
<rect x="338" y="151" width="54" height="18" rx="9" fill="#DBEAFE" stroke="#BFDBFE" stroke-width="1"/>
<text x="365" y="164" font-size="11" font-weight="500" fill="#1D4ED8" text-anchor="middle">初版</text>
<text x="464" y="164" font-size="11" fill="#9CA3AF" text-anchor="end">3 月 5 日</text>
</svg>