<!-- =============================================================
     Cover: keeply-first-week-workflow (zh-CN)
     ============================================================= -->
<svg xmlns="http://www.w3.org/2000/svg" viewBox="0 0 1600 900" fill="none"
     font-family="'Noto Sans SC','PingFang SC','Microsoft YaHei',system-ui,sans-serif">

  <defs>
    <linearGradient id="grad-indigo" x1="0" y1="0" x2="1" y2="1"><stop offset="0" stop-color="#4F46E5"/><stop offset="1" stop-color="#4338CA"/></linearGradient>
    <linearGradient id="grad-indigo-deep" x1="0" y1="0" x2="1" y2="1"><stop offset="0" stop-color="#4338CA"/><stop offset="1" stop-color="#312E81"/></linearGradient>
    <linearGradient id="grad-amber" x1="0" y1="0" x2="1" y2="1"><stop offset="0" stop-color="#FFB300"/><stop offset="1" stop-color="#F59E0B"/></linearGradient>
    <linearGradient id="grad-paper" x1="0" y1="0" x2="1" y2="1"><stop offset="0" stop-color="#F8F7FF"/><stop offset="1" stop-color="#EEF2FF"/></linearGradient>
    <linearGradient id="grad-number" x1="0" y1="0" x2="0" y2="1"><stop offset="0" stop-color="#4338CA"/><stop offset="1" stop-color="#312E81"/></linearGradient>
    <pattern id="pat-grid" x="0" y="0" width="40" height="40" patternUnits="userSpaceOnUse"><path d="M 40 0 L 0 0 0 40" fill="none" stroke="#4338CA" stroke-width="1" opacity="0.05"/></pattern>
    <filter id="soft-shadow" x="-10%" y="-10%" width="120%" height="120%"><feDropShadow dx="0" dy="6" stdDeviation="8" flood-color="#312E81" flood-opacity="0.12"/></filter>
  </defs>

  <symbol id="keeply-mark" viewBox="0 0 512 512">
    <path d="M396 129C429 159 448 200 448 255C448 363 360 451 252 451C145 451 58 368 56 263C55 206 75 158 111 123" stroke="url(#grad-indigo)" stroke-width="44" stroke-linecap="round" fill="none"/>
    <path d="M111 123C145 91 190 72 239 72C253 72 265 73 278 76" stroke="url(#grad-amber)" stroke-width="44" stroke-linecap="round" fill="none"/>
    <path d="M236 54L313 79L254 134L236 54Z" fill="url(#grad-amber)"/>
    <rect x="220" y="150" width="152" height="206" rx="32" fill="url(#grad-indigo-deep)" opacity="0.48"/>
    <rect x="192" y="167" width="152" height="206" rx="32" fill="url(#grad-indigo-deep)" opacity="0.72"/>
    <rect x="164" y="184" width="152" height="206" rx="32" fill="url(#grad-indigo)"/>
  </symbol>

  <symbol id="keeply-lockup" viewBox="0 0 260 64">
    <g transform="translate(0,4) scale(0.11)"><use href="#keeply-mark"/></g>
    <text x="66" y="28" font-size="24" font-weight="800" fill="#312E81" font-family="system-ui,sans-serif" letter-spacing="0.2">Keeply</text>
    <text x="66" y="50" font-size="11" font-weight="600" fill="#4338CA" opacity="0.72" font-family="system-ui,sans-serif" letter-spacing="1.5">KEEPLY.WORK</text>
  </symbol>

  <rect width="1600" height="900" fill="url(#grad-paper)"/>
  <rect width="1600" height="900" fill="url(#pat-grid)"/>
  <circle cx="1450" cy="780" r="200" fill="#FDE68A" opacity="0.28"/>
  <circle cx="1180" cy="200" r="240" fill="#DDD6FE" opacity="0.30"/>
  <line x1="720" y1="120" x2="720" y2="780" stroke="#C7D2FE" stroke-width="1" opacity="0.55" stroke-dasharray="4 8"/>

  <g transform="translate(120, 120)">
    <rect x="0" y="2" width="14" height="14" fill="url(#grad-amber)"/>
    <text x="28" y="14" font-size="17" font-weight="800" fill="#312E81" letter-spacing="4">THE TRIAL DIARY</text>
    <text x="28" y="40" font-size="14" font-weight="600" fill="#4338CA" opacity="0.72" letter-spacing="2">7 天观察日记 · EDITORIAL</text>
  </g>

  <g transform="translate(120, 210)">
    <text x="0" y="310" font-size="400" font-weight="900" fill="url(#grad-number)" letter-spacing="-20">7</text>
    <path d="M0 334 L380 334" stroke="url(#grad-amber)" stroke-width="6" stroke-linecap="round"/>
  </g>

  <g transform="translate(120, 580)">
    <text x="0" y="0" font-size="32" font-weight="800" fill="#312E81">天观察日记</text>
    <text x="0" y="38" font-size="17" font-weight="500" fill="#4338CA" opacity="0.75">DAYS · TRIAL DIARY · INSTALL → DECIDE</text>
  </g>

  <g transform="translate(120, 660)">
    <text x="0" y="0" font-size="20" font-weight="700" fill="#312E81">装完什么都不用做——</text>
    <text x="0" y="30" font-size="20" font-weight="700" fill="#312E81">用真实工作日<tspan fill="#F59E0B">当试金石</tspan></text>
  </g>

  <use href="#keeply-lockup" x="120" y="790" width="200" height="50"/>

  <g transform="translate(820, 130)">
    <text x="0" y="14" font-size="11" font-weight="700" fill="#4338CA" opacity="0.72" letter-spacing="2">7 天观察 — 3 个真实信号</text>
    <text x="700" y="14" font-size="11" font-weight="700" fill="#F59E0B" opacity="0.95" letter-spacing="2" text-anchor="end">★ 不满意 Day 7 移除</text>
  </g>

  <g transform="translate(820, 170)">
    <g transform="translate(0, 0)" filter="url(#soft-shadow)">
      <rect x="0" y="0" width="100" height="120" rx="10" fill="url(#grad-amber)"/>
      <text x="50" y="32" font-size="13" font-weight="700" fill="#ffffff" text-anchor="middle" letter-spacing="1">DAY 1</text>
      <line x1="14" y1="42" x2="86" y2="42" stroke="#ffffff" stroke-width="1" opacity="0.6"/>
      <text x="50" y="64" font-size="11" font-weight="700" fill="#ffffff" text-anchor="middle">信号 #1</text>
      <text x="50" y="84" font-size="11" font-weight="600" fill="#ffffff" text-anchor="middle">自动</text>
      <text x="50" y="100" font-size="11" font-weight="600" fill="#ffffff" text-anchor="middle">版本追踪</text>
      <text x="50" y="115" font-size="10" font-weight="600" fill="#ffffff" opacity="0.85" text-anchor="middle">启动</text>
    </g>
    <g transform="translate(110, 0)" filter="url(#soft-shadow)">
      <rect x="0" y="0" width="100" height="120" rx="10" fill="#ffffff"/>
      <rect x="0" y="0" width="100" height="120" rx="10" fill="none" stroke="#C7D2FE" stroke-width="1"/>
      <text x="50" y="32" font-size="13" font-weight="700" fill="#4338CA" text-anchor="middle" letter-spacing="1">DAY 2</text>
      <line x1="14" y1="42" x2="86" y2="42" stroke="#C7D2FE" stroke-width="1"/>
      <text x="50" y="76" font-size="11" font-weight="500" fill="#4338CA" opacity="0.7" text-anchor="middle">继续工作</text>
      <text x="50" y="92" font-size="11" font-weight="500" fill="#4338CA" opacity="0.7" text-anchor="middle">什么都</text>
      <text x="50" y="108" font-size="11" font-weight="500" fill="#4338CA" opacity="0.7" text-anchor="middle">不用做</text>
    </g>
    <g transform="translate(220, 0)" filter="url(#soft-shadow)">
      <rect x="0" y="0" width="100" height="120" rx="10" fill="url(#grad-amber)"/>
      <text x="50" y="32" font-size="13" font-weight="700" fill="#ffffff" text-anchor="middle" letter-spacing="1">DAY 3</text>
      <line x1="14" y1="42" x2="86" y2="42" stroke="#ffffff" stroke-width="1" opacity="0.6"/>
      <text x="50" y="64" font-size="11" font-weight="700" fill="#ffffff" text-anchor="middle">信号 #2</text>
      <text x="50" y="84" font-size="11" font-weight="600" fill="#ffffff" text-anchor="middle">修改节奏</text>
      <text x="50" y="104" font-size="11" font-weight="600" fill="#ffffff" text-anchor="middle">看清楚</text>
    </g>
    <g transform="translate(330, 0)" filter="url(#soft-shadow)">
      <rect x="0" y="0" width="100" height="120" rx="10" fill="#ffffff"/>
      <rect x="0" y="0" width="100" height="120" rx="10" fill="none" stroke="#C7D2FE" stroke-width="1"/>
      <text x="50" y="32" font-size="13" font-weight="700" fill="#4338CA" text-anchor="middle" letter-spacing="1">DAY 4</text>
      <line x1="14" y1="42" x2="86" y2="42" stroke="#C7D2FE" stroke-width="1"/>
      <text x="50" y="76" font-size="11" font-weight="500" fill="#4338CA" opacity="0.7" text-anchor="middle">版本</text>
      <text x="50" y="92" font-size="11" font-weight="500" fill="#4338CA" opacity="0.7" text-anchor="middle">默默</text>
      <text x="50" y="108" font-size="11" font-weight="500" fill="#4338CA" opacity="0.7" text-anchor="middle">累积</text>
    </g>
    <g transform="translate(440, 0)" filter="url(#soft-shadow)">
      <rect x="0" y="0" width="100" height="120" rx="10" fill="#ffffff"/>
      <rect x="0" y="0" width="100" height="120" rx="10" fill="none" stroke="#C7D2FE" stroke-width="1"/>
      <text x="50" y="32" font-size="13" font-weight="700" fill="#4338CA" text-anchor="middle" letter-spacing="1">DAY 5</text>
      <line x1="14" y1="42" x2="86" y2="42" stroke="#C7D2FE" stroke-width="1"/>
      <text x="50" y="76" font-size="11" font-weight="500" fill="#4338CA" opacity="0.7" text-anchor="middle">不小心</text>
      <text x="50" y="92" font-size="11" font-weight="500" fill="#4338CA" opacity="0.7" text-anchor="middle">改错</text>
      <text x="50" y="108" font-size="11" font-weight="500" fill="#4338CA" opacity="0.7" text-anchor="middle">一个文件</text>
    </g>
    <g transform="translate(550, 0)" filter="url(#soft-shadow)">
      <rect x="0" y="0" width="100" height="120" rx="10" fill="#ffffff"/>
      <rect x="0" y="0" width="100" height="120" rx="10" fill="none" stroke="#C7D2FE" stroke-width="1"/>
      <text x="50" y="32" font-size="13" font-weight="700" fill="#4338CA" text-anchor="middle" letter-spacing="1">DAY 6</text>
      <line x1="14" y1="42" x2="86" y2="42" stroke="#C7D2FE" stroke-width="1"/>
      <text x="50" y="76" font-size="11" font-weight="500" fill="#4338CA" opacity="0.7" text-anchor="middle">想拿回</text>
      <text x="50" y="92" font-size="11" font-weight="500" fill="#4338CA" opacity="0.7" text-anchor="middle">前一版</text>
    </g>
    <g transform="translate(660, 0)" filter="url(#soft-shadow)">
      <rect x="0" y="0" width="100" height="120" rx="10" fill="url(#grad-amber)"/>
      <text x="50" y="32" font-size="13" font-weight="700" fill="#ffffff" text-anchor="middle" letter-spacing="1">DAY 7</text>
      <line x1="14" y1="42" x2="86" y2="42" stroke="#ffffff" stroke-width="1" opacity="0.6"/>
      <text x="50" y="64" font-size="11" font-weight="700" fill="#ffffff" text-anchor="middle">信号 #3</text>
      <text x="50" y="84" font-size="11" font-weight="600" fill="#ffffff" text-anchor="middle">删除复原</text>
      <text x="50" y="104" font-size="11" font-weight="600" fill="#ffffff" text-anchor="middle">可验证</text>
    </g>
  </g>

  <g transform="translate(820, 290)">
    <path d="M50 4 L710 4" stroke="#9C98FF" stroke-width="2" fill="none" stroke-linecap="round" stroke-dasharray="6 6" opacity="0.5"/>
  </g>

  <g transform="translate(820, 320)">
    <text x="0" y="0" font-size="14" font-weight="700" fill="#312E81" letter-spacing="2">3 个信号 / WHAT YOU SHOULD SEE BY DAY 7</text>
  </g>

  <g transform="translate(820, 350)" filter="url(#soft-shadow)">
    <rect x="0" y="0" width="700" height="76" rx="12" fill="#ffffff"/>
    <circle cx="36" cy="38" r="18" fill="url(#grad-amber)"/>
    <text x="36" y="44" font-size="18" font-weight="900" fill="#ffffff" text-anchor="middle">1</text>
    <text x="68" y="32" font-size="16" font-weight="800" fill="#312E81">自动版本追踪启动了没？</text>
    <text x="68" y="56" font-size="13" font-weight="500" fill="#4338CA" opacity="0.75">— 开档、改、存：时间轴有没有自己长出来</text>
  </g>

  <g transform="translate(820, 440)" filter="url(#soft-shadow)">
    <rect x="0" y="0" width="700" height="76" rx="12" fill="#ffffff"/>
    <circle cx="36" cy="38" r="18" fill="url(#grad-amber)"/>
    <text x="36" y="44" font-size="18" font-weight="900" fill="#ffffff" text-anchor="middle">2</text>
    <text x="68" y="32" font-size="16" font-weight="800" fill="#312E81">你的修改节奏看得清楚吗？</text>
    <text x="68" y="56" font-size="13" font-weight="500" fill="#4338CA" opacity="0.75">— 每天哪几个文件被动、什么时间点，一眼扫出来</text>
  </g>

  <g transform="translate(820, 530)" filter="url(#soft-shadow)">
    <rect x="0" y="0" width="700" height="76" rx="12" fill="#ffffff"/>
    <circle cx="36" cy="38" r="18" fill="url(#grad-amber)"/>
    <text x="36" y="44" font-size="18" font-weight="900" fill="#ffffff" text-anchor="middle">3</text>
    <text x="68" y="32" font-size="16" font-weight="800" fill="#312E81">改错时你拿得回前一版吗？</text>
    <text x="68" y="56" font-size="13" font-weight="500" fill="#4338CA" opacity="0.75">— 双击旧版直接还原，不用救援软件不用问同事</text>
  </g>

  <g transform="translate(820, 640)" filter="url(#soft-shadow)">
    <rect x="0" y="0" width="700" height="68" rx="12" fill="#FFFBEB" stroke="url(#grad-amber)" stroke-width="2"/>
    <g transform="translate(20, 16)">
      <circle cx="18" cy="18" r="18" fill="url(#grad-amber)"/>
      <text x="18" y="24" font-size="20" font-weight="900" fill="#ffffff" text-anchor="middle">✓</text>
    </g>
    <text x="76" y="30" font-size="16" font-weight="800" fill="#312E81">3 个信号有任一个不满意 →</text>
    <text x="76" y="56" font-size="14" font-weight="700" fill="#F59E0B">Day 7 直接 uninstall，硬盘干净退场（零承诺）</text>
  </g>

  <g transform="translate(820, 820)">
    <text x="0" y="0" font-size="14" font-weight="600" fill="#4338CA" opacity="0.72" letter-spacing="1">装　→　不动　→　看　→　决定　·　零承诺评估</text>
  </g>

</svg>
