<svg xmlns="http://www.w3.org/2000/svg" viewBox="0 0 480 256" font-family="'Inter','Noto Sans TC','PingFang TC','Microsoft JhengHei','Noto Sans JP','Noto Sans KR',-apple-system,system-ui,sans-serif">
<rect x="0" y="0" width="480" height="256" rx="8" fill="#FFFFFF" stroke="#E5E7EB"/>
<rect x="0" y="0" width="480" height="40" rx="8" fill="#F9FAFB"/>
<rect x="0" y="32" width="480" height="9" fill="#F9FAFB"/>
<line x1="0" y1="40" x2="480" y2="40" stroke="#E5E7EB"/>
<text x="16" y="26" font-size="14" font-weight="700" fill="#374151">🗑️ 最近删除的文件</text>
<text x="464" y="26" font-size="11" fill="#9CA3AF" text-anchor="end">过去 7 天</text>
<text x="16" y="60" font-size="10" font-weight="700" fill="#9CA3AF" letter-spacing="1">Day 5（今天）</text>
<rect x="0" y="68" width="480" height="44" fill="#EEF2FF" opacity="0.5"/>
<text x="16" y="86" font-size="14">📄</text>
<text x="36" y="86" font-size="13" fill="#374151" font-weight="600">test_doc_to_delete.docx</text>
<text x="36" y="100" font-size="10" fill="#9CA3AF">/Work/ — 刚刚 14:32</text>
<text x="464" y="92" font-size="11" fill="#3B82F6" font-weight="600" text-anchor="end">还原 →</text>
<line x1="0" y1="112" x2="480" y2="112" stroke="#F3F4F6"/>
<text x="16" y="132" font-size="10" font-weight="700" fill="#9CA3AF" letter-spacing="1">Day 4</text>
<text x="16" y="158" font-size="14">📊</text>
<text x="36" y="158" font-size="13" fill="#374151" font-weight="600">old_estimate.xlsx</text>
<text x="36" y="172" font-size="10" fill="#9CA3AF">/Work/Acme/ — Day 4 16:20</text>
<text x="464" y="164" font-size="11" fill="#3B82F6" font-weight="600" text-anchor="end">还原 →</text>
<line x1="0" y1="184" x2="480" y2="184" stroke="#F3F4F6"/>
<text x="16" y="204" font-size="10" font-weight="700" fill="#9CA3AF" letter-spacing="1">Day 2</text>
<text x="16" y="230" font-size="14">🖼️</text>
<text x="36" y="230" font-size="13" fill="#374151" font-weight="600">moodboard_v1.png</text>
<text x="36" y="244" font-size="10" fill="#9CA3AF">/Design/ — Day 2</text>
<text x="464" y="236" font-size="11" fill="#3B82F6" font-weight="600" text-anchor="end">还原 →</text>
</svg>