<svg xmlns="http://www.w3.org/2000/svg" viewBox="0 0 640 400" font-family="Segoe UI, 'Malgun Gothic', 'Apple SD Gothic Neo', sans-serif">
  <!-- host-app illustration: Excel「저장되지 않은 통합 문서 복구」— excel-unsaved-recovery (ko) -->
  <rect x="0" y="0" width="640" height="400" rx="8" fill="#F3F2F1" stroke="#D2D0CE" stroke-width="1"/>
  <rect x="0" y="0" width="640" height="40" rx="8" fill="#217346"/>
  <rect x="0" y="20" width="640" height="20" fill="#217346"/>
  <text x="16" y="25" font-size="13" font-weight="700" fill="#FFFFFF">Excel</text>
  <text x="74" y="25" font-size="11" fill="#D7EEE0">파일 ▸ 정보 ▸ 통합 문서 관리 ▸ 저장되지 않은 통합 문서 복구</text>
  <rect x="40" y="64" width="560" height="300" rx="6" fill="#FFFFFF" stroke="#C8C6C4" stroke-width="1"/>
  <rect x="40" y="64" width="560" height="34" rx="6" fill="#FAF9F8"/>
  <rect x="40" y="86" width="560" height="12" fill="#FAF9F8"/>
  <text x="56" y="86" font-size="12.5" font-weight="600" fill="#323130">열기 — 저장되지 않은 통합 문서 복구</text>
  <text x="584" y="86" font-size="14" fill="#605E5C" text-anchor="end">✕</text>
  <rect x="56" y="108" width="528" height="26" rx="3" fill="#FFFFFF" stroke="#D2D0CE" stroke-width="1"/>
  <text x="66" y="125" font-size="11" fill="#605E5C">C:\Users\you\AppData\Local\Microsoft\Office\UnsavedFiles</text>
  <line x1="56" y1="148" x2="584" y2="148" stroke="#EDEBE9" stroke-width="1"/>
  <text x="66" y="164" font-size="11" font-weight="700" fill="#605E5C">이름</text>
  <text x="380" y="164" font-size="11" font-weight="700" fill="#605E5C">수정한 날짜</text>
  <text x="520" y="164" font-size="11" font-weight="700" fill="#605E5C">유형</text>
  <line x1="56" y1="172" x2="584" y2="172" stroke="#EDEBE9" stroke-width="1"/>
  <rect x="56" y="172" width="528" height="30" fill="#E7F2EC"/>
  <text x="66" y="192" font-size="12" fill="#323130">📊  Q2_report (저장 안 됨).xlsb</text>
  <text x="380" y="192" font-size="11" fill="#605E5C">오늘 오전 11:15</text>
  <text x="520" y="192" font-size="11" fill="#605E5C">.xlsb</text>
  <text x="66" y="222" font-size="12" fill="#323130">📊  Book1 (저장 안 됨).xlsb</text>
  <text x="380" y="222" font-size="11" fill="#605E5C">오늘 오전 09:02</text>
  <text x="520" y="222" font-size="11" fill="#605E5C">.xlsb</text>
  <line x1="56" y1="232" x2="584" y2="232" stroke="#F3F2F1" stroke-width="1"/>
  <text x="66" y="252" font-size="12" fill="#323130">📊  forecast (저장 안 됨).xlsb</text>
  <text x="380" y="252" font-size="11" fill="#605E5C">05/19 오후 04:48</text>
  <text x="520" y="252" font-size="11" fill="#605E5C">.xlsb</text>
  <rect x="392" y="316" width="88" height="30" rx="3" fill="#217346"/>
  <text x="436" y="335" font-size="12" fill="#FFFFFF" text-anchor="middle">열기</text>
  <rect x="492" y="316" width="92" height="30" rx="3" fill="#FFFFFF" stroke="#C8C6C4" stroke-width="1"/>
  <text x="538" y="335" font-size="12" fill="#323130" text-anchor="middle">취소</text>
  <text x="40" y="388" font-size="10.5" fill="#A19F9D">복구된 파일은 UnsavedFiles 캐시에 있는 임시 .xlsb입니다 —— '다른 이름으로 저장'해야 남습니다.</text>
</svg>
