<svg xmlns="http://www.w3.org/2000/svg" viewBox="0 0 640 380" font-family="Segoe UI, 'Malgun Gothic', 'Apple SD Gothic Neo', sans-serif">
  <!-- host-app illustration: UnsavedFiles 캐시 폴더 — excel-unsaved-recovery (ko) -->
  <rect x="0" y="0" width="640" height="380" rx="8" fill="#FFFFFF" stroke="#D2D0CE" stroke-width="1"/>
  <rect x="0" y="0" width="640" height="36" rx="8" fill="#F3F2F1"/>
  <rect x="0" y="18" width="640" height="18" fill="#F3F2F1"/>
  <text x="16" y="23" font-size="12" font-weight="600" fill="#323130">📁  UnsavedFiles</text>
  <text x="612" y="23" font-size="13" fill="#605E5C" text-anchor="end">—  ☐  ✕</text>
  <rect x="16" y="46" width="608" height="28" rx="3" fill="#FFFFFF" stroke="#D2D0CE" stroke-width="1"/>
  <text x="28" y="64" font-size="11" fill="#323130">내 PC ▸ 로컬 디스크 (C:) ▸ 사용자 ▸ you ▸ AppData ▸ Local ▸ Microsoft ▸ Office ▸ UnsavedFiles</text>
  <line x1="16" y1="90" x2="624" y2="90" stroke="#EDEBE9" stroke-width="1"/>
  <text x="28" y="106" font-size="11" font-weight="700" fill="#605E5C">이름</text>
  <text x="360" y="106" font-size="11" font-weight="700" fill="#605E5C">수정한 날짜</text>
  <text x="520" y="106" font-size="11" font-weight="700" fill="#605E5C">유형</text>
  <line x1="16" y1="114" x2="624" y2="114" stroke="#EDEBE9" stroke-width="1"/>
  <text x="28" y="138" font-size="12" fill="#323130">📊  Q2_report (저장 안 됨).xlsb</text>
  <text x="360" y="138" font-size="11" fill="#605E5C">오늘 오전 11:15</text>
  <text x="520" y="138" font-size="11" fill="#605E5C">XLSB 파일</text>
  <line x1="16" y1="150" x2="624" y2="150" stroke="#F3F2F1" stroke-width="1"/>
  <text x="28" y="172" font-size="12" fill="#323130">📊  Book1 (저장 안 됨).xlsb</text>
  <text x="360" y="172" font-size="11" fill="#605E5C">오늘 오전 09:02</text>
  <text x="520" y="172" font-size="11" fill="#605E5C">XLSB 파일</text>
  <line x1="16" y1="184" x2="624" y2="184" stroke="#F3F2F1" stroke-width="1"/>
  <text x="28" y="206" font-size="12" fill="#323130">📊  forecast (저장 안 됨).xlsb</text>
  <text x="360" y="206" font-size="11" fill="#605E5C">05/19 오후 04:48</text>
  <text x="520" y="206" font-size="11" fill="#605E5C">XLSB 파일</text>
  <line x1="16" y1="218" x2="624" y2="218" stroke="#F3F2F1" stroke-width="1"/>
  <text x="28" y="240" font-size="12" fill="#A19F9D">📊  budget (저장 안 됨).xlsb</text>
  <text x="360" y="240" font-size="11" fill="#C8C6C4">05/15 — 삭제됨</text>
  <text x="520" y="240" font-size="11" fill="#C8C6C4">(사라짐)</text>
  <rect x="0" y="332" width="640" height="48" fill="#FBF6EC"/>
  <line x1="0" y1="332" x2="640" y2="332" stroke="#F0E3C8" stroke-width="1"/>
  <text x="16" y="352" font-size="11.5" fill="#8A6D1A">⏳  이것은 임시 캐시이지 백업 폴더가 아닙니다.</text>
  <text x="16" y="369" font-size="11.5" fill="#8A6D1A">Excel이 알아서 비웁니다 —— 오래된 항목(위의 budget 등)은 조용히 사라집니다.</text>
</svg>
