<svg xmlns="http://www.w3.org/2000/svg" viewBox="0 0 640 380" font-family="Segoe UI, 'Yu Gothic UI', 'Hiragino Sans', Meiryo, sans-serif">
  <!-- host-app illustration: UnsavedFiles キャッシュ フォルダー — excel-unsaved-recovery (ja) -->
  <rect x="0" y="0" width="640" height="380" rx="8" fill="#FFFFFF" stroke="#D2D0CE" stroke-width="1"/>
  <rect x="0" y="0" width="640" height="36" rx="8" fill="#F3F2F1"/>
  <rect x="0" y="18" width="640" height="18" fill="#F3F2F1"/>
  <text x="16" y="23" font-size="12" font-weight="600" fill="#323130">📁  UnsavedFiles</text>
  <text x="612" y="23" font-size="13" fill="#605E5C" text-anchor="end">—  ☐  ✕</text>
  <rect x="16" y="46" width="608" height="28" rx="3" fill="#FFFFFF" stroke="#D2D0CE" stroke-width="1"/>
  <text x="28" y="64" font-size="11" fill="#323130">PC ▸ ローカル ディスク (C:) ▸ ユーザー ▸ you ▸ AppData ▸ Local ▸ Microsoft ▸ Office ▸ UnsavedFiles</text>
  <line x1="16" y1="90" x2="624" y2="90" stroke="#EDEBE9" stroke-width="1"/>
  <text x="28" y="106" font-size="11" font-weight="700" fill="#605E5C">名前</text>
  <text x="360" y="106" font-size="11" font-weight="700" fill="#605E5C">更新日時</text>
  <text x="520" y="106" font-size="11" font-weight="700" fill="#605E5C">種類</text>
  <line x1="16" y1="114" x2="624" y2="114" stroke="#EDEBE9" stroke-width="1"/>
  <text x="28" y="138" font-size="12" fill="#323130">📊  Q2_report (未保存).xlsb</text>
  <text x="360" y="138" font-size="11" fill="#605E5C">今日 11:15</text>
  <text x="520" y="138" font-size="11" fill="#605E5C">XLSB ファイル</text>
  <line x1="16" y1="150" x2="624" y2="150" stroke="#F3F2F1" stroke-width="1"/>
  <text x="28" y="172" font-size="12" fill="#323130">📊  Book1 (未保存).xlsb</text>
  <text x="360" y="172" font-size="11" fill="#605E5C">今日 09:02</text>
  <text x="520" y="172" font-size="11" fill="#605E5C">XLSB ファイル</text>
  <line x1="16" y1="184" x2="624" y2="184" stroke="#F3F2F1" stroke-width="1"/>
  <text x="28" y="206" font-size="12" fill="#323130">📊  forecast (未保存).xlsb</text>
  <text x="360" y="206" font-size="11" fill="#605E5C">05/19 16:48</text>
  <text x="520" y="206" font-size="11" fill="#605E5C">XLSB ファイル</text>
  <line x1="16" y1="218" x2="624" y2="218" stroke="#F3F2F1" stroke-width="1"/>
  <text x="28" y="240" font-size="12" fill="#A19F9D">📊  budget (未保存).xlsb</text>
  <text x="360" y="240" font-size="11" fill="#C8C6C4">05/15 — 消去済み</text>
  <text x="520" y="240" font-size="11" fill="#C8C6C4">（消えました）</text>
  <rect x="0" y="332" width="640" height="48" fill="#FBF6EC"/>
  <line x1="0" y1="332" x2="640" y2="332" stroke="#F0E3C8" stroke-width="1"/>
  <text x="16" y="352" font-size="11.5" fill="#8A6D1A">⏳  これは一時キャッシュで、バックアップ フォルダーではありません。</text>
  <text x="16" y="369" font-size="11.5" fill="#8A6D1A">Excel が自動的に消去します——古い項目（上の budget など）は静かに消えます。</text>
</svg>
