<svg xmlns="http://www.w3.org/2000/svg" viewBox="0 0 480 224" font-family="'Noto Sans TC','PingFang TC','Microsoft JhengHei',-apple-system,system-ui,sans-serif">
<rect x="0" y="0" width="480" height="224" rx="8" fill="#FFFFFF" stroke="#E5E7EB" stroke-width="1"/>
<circle cx="20" cy="32" r="4" fill="#3B82F6"/>
<text x="32" y="37" font-size="13" fill="#374151">自動儲存 — thesis.docx</text>
<text x="464" y="36" font-size="11" fill="#9CA3AF" text-anchor="end">30 分鐘前</text>
<circle cx="20" cy="64" r="4" fill="#3B82F6"/>
<text x="32" y="69" font-size="13" fill="#374151">3.2 節重寫 — 教授第三輪回饋後</text>
<rect x="320" y="55" width="72" height="18" rx="9" fill="#DBEAFE" stroke="#BFDBFE" stroke-width="1"/>
<text x="356" y="68" font-size="11" font-weight="500" fill="#1D4ED8" text-anchor="middle">教授確認</text>
<text x="464" y="68" font-size="11" fill="#9CA3AF" text-anchor="end">2 小時前</text>
<circle cx="20" cy="96" r="4" fill="#3B82F6"/>
<text x="32" y="101" font-size="13" fill="#374151">自動儲存</text>
<text x="464" y="100" font-size="11" fill="#9CA3AF" text-anchor="end">上午</text>
<circle cx="20" cy="128" r="4" fill="#3B82F6"/>
<text x="32" y="133" font-size="13" fill="#374151">第二輪完稿 — 送教授前</text>
<rect x="334" y="119" width="58" height="18" rx="9" fill="#DBEAFE" stroke="#BFDBFE" stroke-width="1"/>
<text x="363" y="132" font-size="11" font-weight="500" fill="#1D4ED8" text-anchor="middle">送教授</text>
<text x="464" y="132" font-size="11" fill="#9CA3AF" text-anchor="end">昨天</text>
<circle cx="20" cy="160" r="4" fill="#3B82F6"/>
<text x="32" y="165" font-size="13" fill="#374151">自動儲存</text>
<text x="464" y="164" font-size="11" fill="#9CA3AF" text-anchor="end">昨天</text>
<circle cx="20" cy="192" r="4" fill="#3B82F6"/>
<text x="32" y="197" font-size="13" fill="#374151">第一輪完稿 — 含緒論+第二章</text>
<rect x="334" y="183" width="58" height="18" rx="9" fill="#DBEAFE" stroke="#BFDBFE" stroke-width="1"/>
<text x="363" y="196" font-size="11" font-weight="500" fill="#1D4ED8" text-anchor="middle">第一輪</text>
<text x="464" y="196" font-size="11" fill="#9CA3AF" text-anchor="end">2 週前</text>
</svg>