<!-- Image 1: 30  機能勾選清單 vs 「拖進去就好」對比視覺 -->
<svg xmlns="http://www.w3.org/2000/svg" viewBox="0 0 1200 600" fill="none"
     font-family="'Inter','Noto Sans JP','Hiragino Sans',system-ui,sans-serif">
  <defs>
    <linearGradient id="g-indigo" x1="0" y1="0" x2="1" y2="1">
      <stop offset="0" stop-color="#4F46E5"/><stop offset="1" stop-color="#4338CA"/>
    </linearGradient>
    <linearGradient id="g-amber" x1="0" y1="0" x2="1" y2="1">
      <stop offset="0" stop-color="#FFB300"/><stop offset="1" stop-color="#F59E0B"/>
    </linearGradient>
    <linearGradient id="g-paper" x1="0" y1="0" x2="1" y2="1">
      <stop offset="0" stop-color="#F8F7FF"/><stop offset="1" stop-color="#EEF2FF"/>
    </linearGradient>
    <pattern id="grid" x="0" y="0" width="32" height="32" patternUnits="userSpaceOnUse">
      <path d="M 32 0 L 0 0 0 32" fill="none" stroke="#4338CA" stroke-width="1" opacity="0.05"/>
    </pattern>
    <filter id="shadow"><feDropShadow dx="0" dy="6" stdDeviation="8" flood-color="#312E81" flood-opacity="0.14"/></filter>
  </defs>

  <rect width="1200" height="600" fill="url(#g-paper)"/>
  <rect width="1200" height="600" fill="url(#grid)"/>

  <!-- Top label -->
  <text x="600" y="48" font-size="13" font-weight="800" fill="#312E81" text-anchor="middle" letter-spacing="3">従来ソフトの onboarding · vs · ドラッグするだけ</text>

  <!-- LEFT: 30 功能勾選清單 -->
  <g transform="translate(80, 90)" filter="url(#shadow)">
    <rect width="460" height="430" rx="10" fill="#ffffff"/>
    <rect width="460" height="46" rx="10" fill="url(#g-indigo)"/>
    <rect y="32" width="460" height="14" fill="url(#g-indigo)"/>
    <text x="20" y="30" font-size="14" font-weight="700" fill="#ffffff" font-family="system-ui,sans-serif">従来ソフト — 30 機能</text>

    <g transform="translate(28, 70)" font-family="system-ui,sans-serif">
      <g>
        <rect x="0" y="0" width="22" height="22" rx="3" fill="none" stroke="#6F6AF0" stroke-width="2"/>
        <text x="36" y="17" font-size="14" fill="#312E81">アカウント登録 + メール認証</text>
      </g>
      <g transform="translate(0, 36)">
        <rect x="0" y="0" width="22" height="22" rx="3" fill="none" stroke="#6F6AF0" stroke-width="2"/>
        <text x="36" y="17" font-size="14" fill="#312E81">クラウド同期設定</text>
      </g>
      <g transform="translate(0, 72)">
        <rect x="0" y="0" width="22" height="22" rx="3" fill="none" stroke="#6F6AF0" stroke-width="2"/>
        <text x="36" y="17" font-size="14" fill="#312E81">ワークスペース作成 + チーム招待</text>
      </g>
      <g transform="translate(0, 108)">
        <rect x="0" y="0" width="22" height="22" rx="3" fill="none" stroke="#6F6AF0" stroke-width="2"/>
        <text x="36" y="17" font-size="14" fill="#312E81">権限 / ロール設定</text>
      </g>
      <g transform="translate(0, 144)">
        <rect x="0" y="0" width="22" height="22" rx="3" fill="none" stroke="#6F6AF0" stroke-width="2"/>
        <text x="36" y="17" font-size="14" fill="#312E81">バックアップスケジュール + 保持ルールを設定</text>
      </g>
      <g transform="translate(0, 180)">
        <rect x="0" y="0" width="22" height="22" rx="3" fill="none" stroke="#6F6AF0" stroke-width="2"/>
        <text x="36" y="17" font-size="14" fill="#312E81">キーボードショートカットを覚える</text>
      </g>
      <g transform="translate(0, 216)">
        <rect x="0" y="0" width="22" height="22" rx="3" fill="none" stroke="#6F6AF0" stroke-width="2"/>
        <text x="36" y="17" font-size="14" fill="#312E81">ドキュメント 1〜3 章を読む</text>
      </g>
      <g transform="translate(0, 252)" opacity="0.55">
        <text x="0" y="17" font-size="13" fill="#6F6AF0" font-weight="500">+ 23 more features...</text>
      </g>
      <!-- 14 天 negative tag -->
      <g transform="translate(0, 290)">
        <rect width="180" height="32" rx="4" fill="#FEE2E2" stroke="#DC2626" stroke-width="1.5"/>
        <text x="90" y="22" font-size="13" font-weight="700" fill="#DC2626" text-anchor="middle">14 日たってやっと value</text>
      </g>
    </g>
  </g>

  <!-- VS divider -->
  <g transform="translate(600, 290)">
    <circle cx="0" cy="0" r="32" fill="url(#g-amber)" filter="url(#shadow)"/>
    <text x="0" y="6" font-size="16" font-weight="900" fill="#ffffff" text-anchor="middle" letter-spacing="1">VS</text>
  </g>

  <!-- RIGHT: 2  アクション -->
  <g transform="translate(660, 90)" filter="url(#shadow)">
    <rect width="460" height="430" rx="10" fill="#ffffff" stroke="url(#g-amber)" stroke-width="2"/>
    <rect width="460" height="46" rx="10" fill="url(#g-amber)"/>
    <rect y="32" width="460" height="14" fill="url(#g-amber)"/>
    <text x="20" y="30" font-size="14" font-weight="700" fill="#ffffff" font-family="system-ui,sans-serif">Keeply — 2 アクション</text>

    <g transform="translate(28, 90)" font-family="system-ui,sans-serif">
      <!-- アクション 1 -->
      <g>
        <circle cx="20" cy="20" r="20" fill="url(#g-indigo)"/>
        <text x="20" y="26" font-size="18" font-weight="900" fill="#ffffff" text-anchor="middle">1</text>
        <text x="56" y="18" font-size="18" font-weight="700" fill="#312E81">フォルダを 1 つ Keeply にドラッグ</text>
        <text x="56" y="40" font-size="13" font-weight="500" fill="#4338CA" opacity="0.7">名前変更なし、分類なし、構造を考えない</text>
      </g>

      <!-- アクション 2 -->
      <g transform="translate(0, 90)">
        <circle cx="20" cy="20" r="20" fill="url(#g-indigo)"/>
        <text x="20" y="26" font-size="18" font-weight="900" fill="#ffffff" text-anchor="middle">2</text>
        <text x="56" y="18" font-size="18" font-weight="700" fill="#312E81">今日の仕事を続ける</text>
        <text x="56" y="40" font-size="13" font-weight="500" fill="#4338CA" opacity="0.7">編集、保存、削除してやり直し OK</text>
      </g>

      <!-- 結果 stamp -->
      <g transform="translate(0, 220)">
        <rect width="404" height="56" rx="8" fill="#FFFBEB" stroke="url(#g-amber)" stroke-width="2"/>
        <text x="202" y="24" font-size="13" font-weight="700" fill="#312E81" text-anchor="middle" letter-spacing="2">結果</text>
        <text x="202" y="46" font-size="17" font-weight="800" fill="url(#g-amber)" text-anchor="middle">1 日目で使いこなせる</text>
      </g>
    </g>
  </g>

  <!-- Bottom caption -->
  <text x="600" y="568" font-size="14" font-weight="700" fill="#312E81" text-anchor="middle" letter-spacing="2">2 つの道 · 同じ目的地 · 経路差 13 日</text>

</svg>
