<svg xmlns="http://www.w3.org/2000/svg" viewBox="0 0 480 206" font-family="'Inter','Noto Sans TC','PingFang TC','Microsoft JhengHei','Noto Sans JP','Noto Sans KR',-apple-system,system-ui,sans-serif">
<rect x="0" y="0" width="480" height="206" rx="8" fill="#FFFFFF" stroke="#E5E7EB"/>
<rect x="0" y="0" width="480" height="40" rx="8" fill="#F9FAFB"/>
<rect x="0" y="32" width="480" height="9" fill="#F9FAFB"/>
<line x1="0" y1="40" x2="480" y2="40" stroke="#E5E7EB"/>
<text x="16" y="26" font-size="13" font-weight="700" fill="#374151">proposal.docx · a3f9c4d2 → 7c3d1f80</text>
<text x="464" y="26" font-size="11" fill="#9CA3AF" text-anchor="end">3 file · +84 / -29</text>
<rect x="0" y="50" width="480" height="40" fill="#EFF6FF" opacity="0.4"/>
<text x="16" y="74" font-size="10" font-weight="700" fill="#2563EB">M</text>
<text x="32" y="74" font-size="13" fill="#374151">proposal.docx — Sezione 3: Prezzi</text>
<text x="464" y="74" font-size="11" fill="#2563EB" text-anchor="end">+12 / -8</text>
<rect x="32" y="90" width="432" height="28" fill="#F9FAFB" stroke="#E5E7EB"/>
<rect x="38" y="92" width="420" height="14" fill="#FEE2E2"/>
<text x="44" y="100" font-size="10" font-family="Menlo,monospace" fill="#DC2626">-</text>
<text x="56" y="100" font-size="10" font-family="Menlo,monospace" fill="#9CA3AF">L42</text>
<text x="80" y="100" font-size="10" font-family="Menlo,monospace" fill="#B91C1C">Canone annuo: € 24.000</text>
<rect x="38" y="106" width="420" height="14" fill="#DCFCE7"/>
<text x="44" y="114" font-size="10" font-family="Menlo,monospace" fill="#16A34A">+</text>
<text x="56" y="114" font-size="10" font-family="Menlo,monospace" fill="#9CA3AF">L42</text>
<text x="80" y="114" font-size="10" font-family="Menlo,monospace" fill="#15803D">Canone annuo: € 28.500 (cliente chiede SLA)</text>
<line x1="0" y1="126" x2="480" y2="126" stroke="#F3F4F6"/>
<text x="16" y="150" font-size="10" font-weight="700" fill="#2563EB">M</text>
<text x="32" y="150" font-size="13" fill="#374151">pricing.xlsx</text>
<text x="464" y="150" font-size="11" fill="#2563EB" text-anchor="end">+48 / -15</text>
<line x1="0" y1="166" x2="480" y2="166" stroke="#F3F4F6"/>
<text x="16" y="190" font-size="10" font-weight="700" fill="#16A34A">A</text>
<text x="32" y="190" font-size="13" fill="#374151">sla_addendum_v2.docx</text>
<text x="464" y="190" font-size="11" fill="#16A34A" text-anchor="end">+24 / -0</text>
</svg>