<svg xmlns="http://www.w3.org/2000/svg" viewBox="0 0 480 240" font-family="'Inter','Noto Sans TC','PingFang TC','Microsoft JhengHei','Noto Sans JP','Noto Sans KR',-apple-system,system-ui,sans-serif">
<rect x="0" y="0" width="480" height="240" rx="8" fill="#FFFFFF" stroke="#E5E7EB" stroke-width="1"/>
<rect x="0" y="0" width="480" height="36" rx="8" fill="#F9FAFB"/>
<rect x="0" y="28" width="480" height="9" fill="#F9FAFB"/>
<line x1="0" y1="36" x2="480" y2="36" stroke="#E5E7EB" stroke-width="1"/>
<text x="14" y="22" font-size="14">📄</text>
<text x="34" y="23" font-size="13" font-weight="700" fill="#374151">proposal_acme.docx</text>
<text x="200" y="23" font-size="11" fill="#9CA3AF">/Clients/Acme/2026-Q2/</text>
<text x="462" y="24" font-size="14" fill="#9CA3AF" text-anchor="end">✕</text>
<rect x="0" y="36" width="480" height="36" fill="#EEF2FF" opacity="0.5"/>
<text x="14" y="58" font-size="11" fill="#6B7280">오늘 16:42</text>
<text x="110" y="58" font-size="13" fill="#374151">최종 가격 — 고객 사인오프</text>
<text x="468" y="58" font-size="11" fill="#D1D5DB" text-anchor="end">당신</text>
<line x1="0" y1="72" x2="480" y2="72" stroke="#F3F4F6" stroke-width="1"/>
<text x="14" y="94" font-size="11" fill="#9CA3AF">오늘 14:18</text>
<text x="110" y="94" font-size="13" fill="#374151">자동 저장</text>
<text x="468" y="94" font-size="11" fill="#D1D5DB" text-anchor="end">자동</text>
<line x1="0" y1="108" x2="480" y2="108" stroke="#F3F4F6" stroke-width="1"/>
<text x="14" y="130" font-size="11" fill="#9CA3AF">오늘 11:03</text>
<text x="110" y="130" font-size="13" fill="#374151">통화 후 SLA 조항 수정</text>
<text x="468" y="130" font-size="11" fill="#D1D5DB" text-anchor="end">당신</text>
<line x1="0" y1="144" x2="480" y2="144" stroke="#F3F4F6" stroke-width="1"/>
<text x="14" y="166" font-size="11" fill="#9CA3AF">2 일차 17:55</text>
<text x="110" y="166" font-size="13" fill="#374151">자동 저장</text>
<text x="468" y="166" font-size="11" fill="#D1D5DB" text-anchor="end">자동</text>
<line x1="0" y1="180" x2="480" y2="180" stroke="#F3F4F6" stroke-width="1"/>
<text x="14" y="202" font-size="11" fill="#9CA3AF">1 일차 09:14</text>
<text x="110" y="202" font-size="13" fill="#374151">템플릿에서 초안 작성</text>
<text x="468" y="202" font-size="11" fill="#D1D5DB" text-anchor="end">당신</text>
<line x1="0" y1="216" x2="480" y2="216" stroke="#F3F4F6" stroke-width="1"/>
<text x="14" y="232" font-size="10" fill="#10B981">✓ 3 일간 5 개 버전 · 로컬 검증 완료</text>
</svg>