<svg xmlns="http://www.w3.org/2000/svg" viewBox="0 0 480 224" font-family="'Noto Sans TC','PingFang TC','Microsoft JhengHei',-apple-system,system-ui,sans-serif">
<rect x="0" y="0" width="480" height="224" rx="8" fill="#FFFFFF" stroke="#E5E7EB" stroke-width="1"/>
<circle cx="20" cy="32" r="4" fill="#3B82F6"/>
<text x="32" y="37" font-size="13" fill="#374151">自動儲存 — meeting-notes.docx</text>
<text x="464" y="36" font-size="11" fill="#9CA3AF" text-anchor="end">30 分鐘前</text>
<circle cx="20" cy="64" r="4" fill="#3B82F6"/>
<text x="32" y="69" font-size="13" fill="#374151">會議後加結論</text>
<rect x="320" y="55" width="72" height="18" rx="9" fill="#DBEAFE" stroke="#BFDBFE" stroke-width="1"/>
<text x="356" y="68" font-size="11" font-weight="500" fill="#1D4ED8" text-anchor="middle">業主確認</text>
<text x="464" y="68" font-size="11" fill="#9CA3AF" text-anchor="end">2 小時前</text>
<circle cx="20" cy="96" r="4" fill="#3B82F6"/>
<text x="32" y="101" font-size="13" fill="#374151">自動儲存 — meeting-notes.docx</text>
<text x="464" y="100" font-size="11" fill="#9CA3AF" text-anchor="end">3 小時前</text>
<circle cx="20" cy="128" r="4" fill="#3B82F6"/>
<text x="32" y="133" font-size="13" fill="#374151">早上的草稿</text>
<text x="464" y="132" font-size="11" fill="#9CA3AF" text-anchor="end">8 小時前</text>
<circle cx="20" cy="160" r="4" fill="#3B82F6"/>
<text x="32" y="165" font-size="13" fill="#374151">自動儲存</text>
<text x="464" y="164" font-size="11" fill="#9CA3AF" text-anchor="end">昨天</text>
<circle cx="20" cy="192" r="4" fill="#3B82F6"/>
<text x="32" y="197" font-size="13" fill="#374151">業主第一次回饋後</text>
<rect x="334" y="183" width="58" height="18" rx="9" fill="#DBEAFE" stroke="#BFDBFE" stroke-width="1"/>
<text x="363" y="196" font-size="11" font-weight="500" fill="#1D4ED8" text-anchor="middle">客戶版</text>
<text x="464" y="196" font-size="11" fill="#9CA3AF" text-anchor="end">昨天</text>
</svg>