<svg xmlns="http://www.w3.org/2000/svg" viewBox="0 0 640 400" font-family="Segoe UI, 'Microsoft JhengHei', 'PingFang TC', sans-serif">
  <!-- host-app illustration: Excel「復原未儲存的活頁簿」— excel-unsaved-recovery (zh-tw) -->
  <rect x="0" y="0" width="640" height="400" rx="8" fill="#F3F2F1" stroke="#D2D0CE" stroke-width="1"/>
  <rect x="0" y="0" width="640" height="40" rx="8" fill="#217346"/>
  <rect x="0" y="20" width="640" height="20" fill="#217346"/>
  <text x="16" y="25" font-size="13" font-weight="700" fill="#FFFFFF">Excel</text>
  <text x="74" y="25" font-size="12" fill="#D7EEE0">檔案  ▸  資訊  ▸  管理活頁簿  ▸  復原未儲存的活頁簿</text>
  <rect x="40" y="64" width="560" height="300" rx="6" fill="#FFFFFF" stroke="#C8C6C4" stroke-width="1"/>
  <rect x="40" y="64" width="560" height="34" rx="6" fill="#FAF9F8"/>
  <rect x="40" y="86" width="560" height="12" fill="#FAF9F8"/>
  <text x="56" y="86" font-size="13" font-weight="600" fill="#323130">開啟 — 復原未儲存的活頁簿</text>
  <text x="584" y="86" font-size="14" fill="#605E5C" text-anchor="end">✕</text>
  <rect x="56" y="108" width="528" height="26" rx="3" fill="#FFFFFF" stroke="#D2D0CE" stroke-width="1"/>
  <text x="66" y="125" font-size="11" fill="#605E5C">C:\Users\you\AppData\Local\Microsoft\Office\UnsavedFiles</text>
  <line x1="56" y1="148" x2="584" y2="148" stroke="#EDEBE9" stroke-width="1"/>
  <text x="66" y="164" font-size="11" font-weight="700" fill="#605E5C">名稱</text>
  <text x="380" y="164" font-size="11" font-weight="700" fill="#605E5C">修改日期</text>
  <text x="520" y="164" font-size="11" font-weight="700" fill="#605E5C">類型</text>
  <line x1="56" y1="172" x2="584" y2="172" stroke="#EDEBE9" stroke-width="1"/>
  <rect x="56" y="172" width="528" height="30" fill="#E7F2EC"/>
  <text x="66" y="192" font-size="12" fill="#323130">📊  Q2_report (未儲存).xlsb</text>
  <text x="380" y="192" font-size="11" fill="#605E5C">今天 上午 11:15</text>
  <text x="520" y="192" font-size="11" fill="#605E5C">.xlsb</text>
  <text x="66" y="222" font-size="12" fill="#323130">📊  Book1 (未儲存).xlsb</text>
  <text x="380" y="222" font-size="11" fill="#605E5C">今天 上午 09:02</text>
  <text x="520" y="222" font-size="11" fill="#605E5C">.xlsb</text>
  <line x1="56" y1="232" x2="584" y2="232" stroke="#F3F2F1" stroke-width="1"/>
  <text x="66" y="252" font-size="12" fill="#323130">📊  forecast (未儲存).xlsb</text>
  <text x="380" y="252" font-size="11" fill="#605E5C">05/19 下午 04:48</text>
  <text x="520" y="252" font-size="11" fill="#605E5C">.xlsb</text>
  <rect x="392" y="316" width="88" height="30" rx="3" fill="#217346"/>
  <text x="436" y="335" font-size="12" fill="#FFFFFF" text-anchor="middle">開啟</text>
  <rect x="492" y="316" width="92" height="30" rx="3" fill="#FFFFFF" stroke="#C8C6C4" stroke-width="1"/>
  <text x="538" y="335" font-size="12" fill="#323130" text-anchor="middle">取消</text>
  <text x="40" y="388" font-size="11" fill="#A19F9D">復原的檔案是 UnsavedFiles 快取裡的臨時 .xlsb —— 要「另存新檔」才留得住。</text>
</svg>
