<svg xmlns="http://www.w3.org/2000/svg" viewBox="0 0 640 380" font-family="Segoe UI, 'Microsoft JhengHei', 'PingFang TC', sans-serif">
  <!-- host-app illustration: UnsavedFiles 快取資料夾 — excel-unsaved-recovery (zh-tw) -->
  <rect x="0" y="0" width="640" height="380" rx="8" fill="#FFFFFF" stroke="#D2D0CE" stroke-width="1"/>
  <rect x="0" y="0" width="640" height="36" rx="8" fill="#F3F2F1"/>
  <rect x="0" y="18" width="640" height="18" fill="#F3F2F1"/>
  <text x="16" y="23" font-size="12" font-weight="600" fill="#323130">📁  UnsavedFiles</text>
  <text x="612" y="23" font-size="13" fill="#605E5C" text-anchor="end">—  ☐  ✕</text>
  <rect x="16" y="46" width="608" height="28" rx="3" fill="#FFFFFF" stroke="#D2D0CE" stroke-width="1"/>
  <text x="28" y="64" font-size="11" fill="#323130">本機 ▸ 本機磁碟 (C:) ▸ 使用者 ▸ you ▸ AppData ▸ Local ▸ Microsoft ▸ Office ▸ UnsavedFiles</text>
  <line x1="16" y1="90" x2="624" y2="90" stroke="#EDEBE9" stroke-width="1"/>
  <text x="28" y="106" font-size="11" font-weight="700" fill="#605E5C">名稱</text>
  <text x="360" y="106" font-size="11" font-weight="700" fill="#605E5C">修改日期</text>
  <text x="520" y="106" font-size="11" font-weight="700" fill="#605E5C">類型</text>
  <line x1="16" y1="114" x2="624" y2="114" stroke="#EDEBE9" stroke-width="1"/>
  <text x="28" y="138" font-size="12" fill="#323130">📊  Q2_report (未儲存).xlsb</text>
  <text x="360" y="138" font-size="11" fill="#605E5C">今天 上午 11:15</text>
  <text x="520" y="138" font-size="11" fill="#605E5C">XLSB 檔案</text>
  <line x1="16" y1="150" x2="624" y2="150" stroke="#F3F2F1" stroke-width="1"/>
  <text x="28" y="172" font-size="12" fill="#323130">📊  Book1 (未儲存).xlsb</text>
  <text x="360" y="172" font-size="11" fill="#605E5C">今天 上午 09:02</text>
  <text x="520" y="172" font-size="11" fill="#605E5C">XLSB 檔案</text>
  <line x1="16" y1="184" x2="624" y2="184" stroke="#F3F2F1" stroke-width="1"/>
  <text x="28" y="206" font-size="12" fill="#323130">📊  forecast (未儲存).xlsb</text>
  <text x="360" y="206" font-size="11" fill="#605E5C">05/19 下午 04:48</text>
  <text x="520" y="206" font-size="11" fill="#605E5C">XLSB 檔案</text>
  <line x1="16" y1="218" x2="624" y2="218" stroke="#F3F2F1" stroke-width="1"/>
  <text x="28" y="240" font-size="12" fill="#A19F9D">📊  budget (未儲存).xlsb</text>
  <text x="360" y="240" font-size="11" fill="#C8C6C4">05/15 — 已清除</text>
  <text x="520" y="240" font-size="11" fill="#C8C6C4">（已消失）</text>
  <rect x="0" y="332" width="640" height="48" fill="#FBF6EC"/>
  <line x1="0" y1="332" x2="640" y2="332" stroke="#F0E3C8" stroke-width="1"/>
  <text x="16" y="352" font-size="11.5" fill="#8A6D1A">⏳  這是臨時快取，不是備份資料夾。</text>
  <text x="16" y="369" font-size="11.5" fill="#8A6D1A">Excel 會自行清除——較舊的項目（如上方的 budget）會悄悄消失。</text>
</svg>
