<svg xmlns="http://www.w3.org/2000/svg" viewBox="0 0 640 340" font-family="'Inter','Noto Sans TC','PingFang TC','Noto Sans JP','Noto Sans KR',-apple-system,system-ui,sans-serif">
<rect x="0" y="0" width="640" height="340" rx="8" fill="#FFFFFF" stroke="#E5E7EB" stroke-width="1"/>
<text x="20" y="30" font-size="15" font-weight="700" fill="#111827">過了第 30 天：4 條救援路徑與真實成功率</text>
<text x="20" y="72" font-size="12" font-weight="600" fill="#374151">Time Machine / 檔案歷史記錄</text>
<text x="20" y="88" font-size="10" fill="#6B7280">最佳 — 前提是你事先設好</text>
<rect x="340" y="66" width="240" height="20" rx="3" fill="#F3F4F6"/>
<rect x="340" y="66" width="204" height="20" rx="3" fill="#34D399" opacity="0.85"/>
<text x="588" y="80" font-size="11" font-weight="600" fill="#34D399">~85%</text>
<text x="20" y="128" font-size="12" font-weight="600" fill="#374151">Dropbox 客服升級處理</text>
<text x="20" y="144" font-size="10" fill="#6B7280">對 Business/Enterprise 偶爾管用</text>
<rect x="340" y="122" width="240" height="20" rx="3" fill="#F3F4F6"/>
<rect x="340" y="122" width="84" height="20" rx="3" fill="#FBBF24" opacity="0.85"/>
<text x="588" y="136" font-size="11" font-weight="600" fill="#FBBF24">~35%</text>
<text x="20" y="184" font-size="12" font-weight="600" fill="#374151">本機 sync 快取殘檔</text>
<text x="20" y="200" font-size="10" fill="#6B7280">看作業系統有沒有清</text>
<rect x="340" y="178" width="240" height="20" rx="3" fill="#F3F4F6"/>
<rect x="340" y="178" width="48" height="20" rx="3" fill="#FB923C" opacity="0.85"/>
<text x="588" y="192" font-size="11" font-weight="600" fill="#FB923C">~20%</text>
<text x="20" y="240" font-size="12" font-weight="600" fill="#374151">磁碟救援軟體（SSD + TRIM）</text>
<text x="20" y="256" font-size="10" fill="#6B7280">在現代 SSD 上幾乎不可能</text>
<rect x="340" y="234" width="240" height="20" rx="3" fill="#F3F4F6"/>
<rect x="340" y="234" width="12" height="20" rx="3" fill="#F87171" opacity="0.85"/>
<text x="588" y="248" font-size="11" font-weight="600" fill="#F87171">~5%</text>
<text x="20" y="320" font-size="11" font-style="italic" fill="#6B7280">⚠ 4 條路中 3 條要事先準備。第 4 條看運氣。</text>
</svg>