<svg xmlns="http://www.w3.org/2000/svg" viewBox="0 0 480 224" font-family="'Noto Sans TC','PingFang TC','Microsoft JhengHei',-apple-system,system-ui,sans-serif">
<rect x="0" y="0" width="480" height="224" rx="8" fill="#FFFFFF" stroke="#E5E7EB" stroke-width="1"/>
<circle cx="20" cy="32" r="4" fill="#3B82F6"/>
<text x="32" y="37" font-size="13" fill="#374151">套用客戶調整後的 pricing</text>
<rect x="306" y="23" width="86" height="18" rx="9" fill="#DBEAFE" stroke="#BFDBFE" stroke-width="1"/>
<text x="349" y="36" font-size="11" font-weight="500" fill="#1D4ED8" text-anchor="middle">客戶簽約版</text>
<text x="464" y="36" font-size="11" fill="#9CA3AF" text-anchor="end">今天 09:14</text>
<circle cx="20" cy="64" r="4" fill="#3B82F6"/>
<text x="32" y="69" font-size="13" fill="#374151">自動儲存 — proposal_v3.docx</text>
<text x="464" y="68" font-size="11" fill="#9CA3AF" text-anchor="end">30 分鐘前</text>
<circle cx="20" cy="96" r="4" fill="#3B82F6"/>
<text x="32" y="101" font-size="13" fill="#374151">第一輪客戶回饋後修改</text>
<rect x="306" y="87" width="86" height="18" rx="9" fill="#DBEAFE" stroke="#BFDBFE" stroke-width="1"/>
<text x="349" y="100" font-size="11" font-weight="500" fill="#1D4ED8" text-anchor="middle">客戶 v2</text>
<text x="464" y="100" font-size="11" fill="#9CA3AF" text-anchor="end">昨天</text>
<circle cx="20" cy="128" r="4" fill="#3B82F6"/>
<text x="32" y="133" font-size="13" fill="#374151">從 60 天前版本還原</text>
<rect x="338" y="119" width="54" height="18" rx="9" fill="#DBEAFE" stroke="#BFDBFE" stroke-width="1"/>
<text x="365" y="132" font-size="11" font-weight="500" fill="#1D4ED8" text-anchor="middle">還原</text>
<text x="464" y="132" font-size="11" fill="#9CA3AF" text-anchor="end">1 週前</text>
<circle cx="20" cy="160" r="4" fill="#3B82F6"/>
<text x="32" y="165" font-size="13" fill="#374151">Q1 結案 — 歸檔</text>
<rect x="278" y="151" width="114" height="18" rx="9" fill="#DBEAFE" stroke="#BFDBFE" stroke-width="1"/>
<text x="335" y="164" font-size="11" font-weight="500" fill="#1D4ED8" text-anchor="middle">Q1 2026</text>
<text x="464" y="164" font-size="11" fill="#9CA3AF" text-anchor="end">3 個月前</text>
<circle cx="20" cy="192" r="4" fill="#3B82F6"/>
<text x="32" y="197" font-size="13" fill="#374151">最初提案草稿</text>
<rect x="320" y="183" width="72" height="18" rx="9" fill="#DBEAFE" stroke="#BFDBFE" stroke-width="1"/>
<text x="356" y="196" font-size="11" font-weight="500" fill="#1D4ED8" text-anchor="middle">v1.0</text>
<text x="464" y="196" font-size="11" fill="#9CA3AF" text-anchor="end">6 個月前</text>
</svg>