<!-- =============================================================
     Cover: Keeply 安装指南（Windows + macOS）（zh-CN）
     ============================================================= -->
<svg xmlns="http://www.w3.org/2000/svg" viewBox="0 0 1600 900" fill="none"
     font-family="'Noto Sans SC','PingFang SC','Microsoft YaHei',system-ui,sans-serif">

  <defs>
    <linearGradient id="bg-paper" x1="0" y1="0" x2="1" y2="1">
      <stop offset="0" stop-color="#F8F7FF"/>
      <stop offset="1" stop-color="#EEF2FF"/>
    </linearGradient>
    <linearGradient id="grad-indigo-deep" x1="0" y1="0" x2="1" y2="1">
      <stop offset="0" stop-color="#4338CA"/><stop offset="1" stop-color="#312E81"/>
    </linearGradient>
    <linearGradient id="grad-amber" x1="0" y1="0" x2="1" y2="1">
      <stop offset="0" stop-color="#FFB300"/><stop offset="1" stop-color="#F59E0B"/>
    </linearGradient>
    <filter id="card-shadow" x="-10%" y="-10%" width="120%" height="120%">
      <feDropShadow dx="0" dy="8" stdDeviation="14" flood-color="#312E81" flood-opacity="0.18"/>
    </filter>
  </defs>

  <rect width="1600" height="900" fill="url(#bg-paper)"/>

  <g transform="translate(120, 120)">
    <rect x="0" y="0" width="20" height="4" fill="#F59E0B"/>
    <text x="32" y="6" font-size="14" font-weight="700" fill="#4338CA" letter-spacing="3" opacity="0.72">TUTORIAL · 安装指南</text>
  </g>

  <text x="120" y="260" font-size="86" font-weight="900" fill="#312E81" letter-spacing="-2">Keeply 安装指南</text>
  <text x="120" y="370" font-size="58" font-weight="800" fill="url(#grad-indigo-deep)" letter-spacing="-1">Windows + macOS</text>

  <text x="120" y="450" font-size="28" font-weight="500" fill="#4F46E5">不靠「仍要运行」那颗小字。</text>
  <text x="120" y="495" font-size="28" font-weight="500" fill="#4F46E5">
    <tspan fill="#F59E0B" font-weight="800">10 分钟</tspan>
    <tspan> 装好，当天就能保住第一个项目。</tspan>
  </text>

  <g transform="translate(120, 590)" filter="url(#card-shadow)">
    <rect x="0" y="0" width="380" height="220" rx="8" fill="#1E2A78"/>
    <text x="20" y="34" font-size="13" font-weight="600" fill="#ffffff">Microsoft Defender SmartScreen</text>
    <text x="20" y="80" font-size="22" font-weight="700" fill="#ffffff">Windows 已保护你的电脑</text>
    <text x="20" y="115" font-size="12" fill="#D1D5DB">阻止了无法识别的应用程序启动。</text>
    <text x="20" y="155" font-size="12" fill="#ffffff" text-decoration="underline">其他信息</text>
    <rect x="270" y="180" width="90" height="28" fill="#ffffff" rx="2"/>
    <text x="315" y="199" font-size="12" font-weight="600" fill="#1E2A78" text-anchor="middle">不运行</text>
    <circle cx="350" cy="20" r="22" fill="#F59E0B" opacity="0.95"/>
    <path d="M 340 10 L 360 30 M 360 10 L 340 30" stroke="#1E2A78" stroke-width="3" stroke-linecap="round"/>
  </g>

  <g transform="translate(540, 680)">
    <path d="M 0 20 L 100 20" stroke="url(#grad-amber)" stroke-width="6" stroke-linecap="round"/>
    <polygon points="100,5 130,20 100,35" fill="url(#grad-amber)"/>
    <text x="65" y="0" font-size="16" font-weight="800" fill="#F59E0B" text-anchor="middle" letter-spacing="1">winget</text>
  </g>

  <g transform="translate(700, 590)" filter="url(#card-shadow)">
    <rect x="0" y="0" width="380" height="220" rx="8" fill="#ffffff" stroke="#E4E3FF" stroke-width="1"/>
    <rect x="20" y="20" width="56" height="56" rx="14" fill="url(#grad-indigo-deep)"/>
    <text x="48" y="62" font-size="32" font-weight="800" fill="#ffffff" text-anchor="middle">K</text>
    <text x="92" y="42" font-size="18" font-weight="700" fill="#312E81">Keeply</text>
    <text x="92" y="64" font-size="12" font-weight="500" fill="#6F6AF0">已成功安装</text>
    <rect x="20" y="105" width="340" height="8" rx="4" fill="#E4E3FF"/>
    <rect x="20" y="105" width="340" height="8" rx="4" fill="url(#grad-indigo-deep)"/>
    <text x="20" y="140" font-size="13" fill="#6F6AF0">第一个项目已加入保护</text>
    <text x="20" y="165" font-size="13" fill="#6F6AF0">改文件时自动记录版本</text>
    <circle cx="350" cy="20" r="22" fill="#10B981"/>
    <path d="M 340 20 L 348 28 L 360 14" stroke="#ffffff" stroke-width="3.5" stroke-linecap="round" stroke-linejoin="round" fill="none"/>
  </g>

  <g transform="translate(1340, 820)">
    <rect x="0" y="0" width="36" height="36" rx="9" fill="url(#grad-indigo-deep)"/>
    <text x="18" y="27" font-size="22" font-weight="800" fill="#ffffff" text-anchor="middle">K</text>
    <text x="48" y="18" font-size="14" font-weight="700" fill="#312E81">Keeply</text>
    <text x="48" y="34" font-size="11" font-weight="500" fill="#6F6AF0">blog.keeply.work</text>
  </g>

  <text x="120" y="855" font-size="13" font-weight="500" fill="#6F6AF0" opacity="0.7">From blue screen to first protected project — in ten minutes.</text>
</svg>
