<svg xmlns="http://www.w3.org/2000/svg" viewBox="0 0 480 224" font-family="'Noto Sans TC','PingFang TC','Microsoft JhengHei',-apple-system,system-ui,sans-serif">
<rect x="0" y="0" width="480" height="224" rx="8" fill="#FFFFFF" stroke="#E5E7EB" stroke-width="1"/>
<circle cx="20" cy="32" r="4" fill="#3B82F6"/>
<text x="32" y="37" font-size="13" fill="#374151">自動保存 — Q2 提案の調整</text>
<text x="464" y="36" font-size="11" fill="#9CA3AF" text-anchor="end">30 分前</text>
<circle cx="20" cy="64" r="4" fill="#3B82F6"/>
<text x="32" y="69" font-size="13" fill="#374151">初回保存 — Keeply インストール直後</text>
<rect x="320" y="55" width="72" height="18" rx="9" fill="#DBEAFE" stroke="#BFDBFE" stroke-width="1"/>
<text x="356" y="68" font-size="11" font-weight="500" fill="#1D4ED8" text-anchor="middle">初回保護</text>
<text x="464" y="68" font-size="11" fill="#9CA3AF" text-anchor="end">今日 10:14</text>
<circle cx="20" cy="96" r="4" fill="#3B82F6"/>
<text x="32" y="101" font-size="13" fill="#374151">自動保存</text>
<text x="464" y="100" font-size="11" fill="#9CA3AF" text-anchor="end">今日 09:42</text>
<circle cx="20" cy="128" r="4" fill="#3B82F6"/>
<text x="32" y="133" font-size="13" fill="#374151">自動保存</text>
<text x="464" y="132" font-size="11" fill="#9CA3AF" text-anchor="end">昨日 17:08</text>
<circle cx="20" cy="160" r="4" fill="#3B82F6"/>
<text x="32" y="165" font-size="13" fill="#374151">Q2 提案 初稿</text>
<rect x="334" y="151" width="58" height="18" rx="9" fill="#DBEAFE" stroke="#BFDBFE" stroke-width="1"/>
<text x="363" y="164" font-size="11" font-weight="500" fill="#1D4ED8" text-anchor="middle">下書き</text>
<text x="464" y="164" font-size="11" fill="#9CA3AF" text-anchor="end">昨日 14:30</text>
<circle cx="20" cy="192" r="4" fill="#3B82F6"/>
<text x="32" y="197" font-size="13" fill="#374151">プロジェクトフォルダ追加</text>
<text x="464" y="196" font-size="11" fill="#9CA3AF" text-anchor="end">昨日 14:25</text>
</svg>